0
SECTION
2
HEADER
9
$INSUNITS
70
4
9
$ACADVER
1
AC1014
9
$HANDSEED
5
FFFF
0
ENDSEC
0
SECTION
2
TABLES
0
TABLE
2
VPORT
5
8
100
AcDbSymbolTable
0
ENDTAB
0
TABLE
2
LTYPE
5
5
100
AcDbSymbolTable
0
LTYPE
5
14
100
AcDbSymbolTableRecord
100
AcDbLinetypeTableRecord
2
BYBLOCK
70
0
0
LTYPE
5
15
100
AcDbSymbolTableRecord
100
AcDbLinetypeTableRecord
2
BYLAYER
70
0
0
LTYPE
5
16
100
AcDbSymbolTableRecord
100
AcDbLinetypeTableRecord
2
DASHED
70
0
3
Dashed __ __ __ __ __ __ __ __ __ __ __ __ __ _
72
65
73
2
40
0.75
49
0.5
74
0
49
-0.25
74
0
0
ENDTAB
0
TABLE
2
LAYER
5
2
100
AcDbSymbolTable
70
2
0
LAYER
5
50
100
AcDbSymbolTableRecord
100
AcDbLayerTableRecord
2
0
70
0
62
7
6
CONTINUOUS
0
ENDTAB
0
TABLE
2
STYLE
5
3
100
AcDbSymbolTable
70
1
0
STYLE
5
11
100
AcDbSymbolTableRecord
100
AcDbTextStyleTableRecord
2
STANDARD
70
0
0
ENDTAB
0
TABLE
2
VIEW
5
6
100
AcDbSymbolTable
70
0
0
ENDTAB
0
TABLE
2
UCS
5
7
100
AcDbSymbolTable
70
0
0
ENDTAB
0
TABLE
2
APPID
5
9
100
AcDbSymbolTable
70
2
0
APPID
5
12
100
AcDbSymbolTableRecord
100
AcDbRegAppTableRecord
2
ACAD
70
0
0
ENDTAB
0
TABLE
2
DIMSTYLE
5
A
100
AcDbSymbolTable
70
1
0
ENDTAB
0
TABLE
2
BLOCK_RECORD
5
1
100
AcDbSymbolTable
70
1
0
BLOCK_RECORD
5
1F
100
AcDbSymbolTableRecord
100
AcDbBlockTableRecord
2
*MODEL_SPACE
0
BLOCK_RECORD
5
1B
100
AcDbSymbolTableRecord
100
AcDbBlockTableRecord
2
*PAPER_SPACE
0
ENDTAB
0
ENDSEC
0
SECTION
2
BLOCKS
0
BLOCK
5
20
100
AcDbEntity
100
AcDbBlockBegin
2
*MODEL_SPACE
0
ENDBLK
5
21
100
AcDbEntity
100
AcDbBlockEnd
0
BLOCK
5
1C
100
AcDbEntity
100
AcDbBlockBegin
2
*PAPER_SPACE
0
ENDBLK
5
1D
100
AcDbEntity
100
AcDbBlockEnd
0
ENDSEC
0
SECTION
2
ENTITIES
0
LINE
5
100
100
AcDbEntity
8
0
100
AcDbLine
10
245.36914117413843
20
28.441047136831585
30
0
11
155.36914117413843
21
28.441047136831582
31
0
0
LINE
5
101
100
AcDbEntity
8
0
100
AcDbLine
10
135.36914117413843
20
28.441047136831582
30
0
11
45.369141174138434
21
28.441047136831585
31
0
0
LINE
5
102
100
AcDbEntity
8
0
100
AcDbLine
10
441.97790052925529
20
125.5990247238218
30
0
11
441.97790052925529
21
-74.400975276178201
31
0
0
CIRCLE
5
103
100
AcDbEntity
8
0
100
AcDbCircle
10
401.77790052925531
20
25.599023457223105
30
0
40
5.7999999999999829
210
0
220
0
230
1
0
ARC
5
104
100
AcDbEntity
8
0
100
AcDbCircle
10
153.2478208305788
20
38.319726793271933
30
0
40
2.9999999999999973
210
0
220
0
230
1
100
AcDbArc
50
-45.000000000000099
51
135.0000000000002
0
ARC
5
105
100
AcDbEntity
8
0
100
AcDbCircle
10
137.49046151769809
20
38.31972679327194
30
0
40
3.0000000000000067
210
0
220
-0
230
1
100
AcDbArc
50
44.999999999999709
51
224.99999999999972
0
LINE
5
106
100
AcDbEntity
8
0
100
AcDbLine
10
135.36914117413843
20
28.441047136831582
30
0
11
135.36914117413843
21
36.198406449712301
31
0
0
LINE
5
107
100
AcDbEntity
8
0
100
AcDbLine
10
139.61178186125775
20
40.441047136831578
30
0
11
151.12650048701914
21
40.441047136831578
31
0
0
LINE
5
108
100
AcDbEntity
8
0
100
AcDbLine
10
155.36914117413843
20
36.198406449712294
30
0
11
155.36914117413843
21
28.441047136831582
31
0
0
ARC
5
109
100
AcDbEntity
8
0
100
AcDbCircle
10
137.49046248627354
20
130.56236891090268
30
0
40
2.9999999999999956
210
0
220
0
230
1
100
AcDbArc
50
135.00000924921528
51
315.00000000000034
0
ARC
5
110
100
AcDbEntity
8
0
100
AcDbCircle
10
153.2478220971775
20
130.56236891090268
30
0
40
2.9999999999999942
210
0
220
0
230
1
100
AcDbArc
50
-135.00000000000037
51
45.000012095128184
0
LINE
5
111
100
AcDbEntity
8
0
100
AcDbLine
10
155.36914117413843
20
140.4410471368316
30
0
11
155.36914199292679
21
132.6836897022726
31
0
0
LINE
5
112
100
AcDbEntity
8
0
100
AcDbLine
10
151.12650175361784
20
128.44104856734305
30
0
11
139.6117828298332
21
128.44104856734305
31
0
0
LINE
5
113
100
AcDbEntity
8
0
100
AcDbLine
10
135.36914180027077
20
132.68368891201911
30
0
11
135.36914117413843
21
140.4410471368316
31
0
0
LWPOLYLINE
5
114
100
AcDbEntity
8
0
100
AcDbPolyline
90
8
70
1
43
0.0
10
164
20
-57.242641655994014
10
163.99999903112518
20
-62.757360281755581
42
0.99999999999999989
10
168.2426397182445
20
-67.000000968874843
10
173.75735834400604
20
-67.000000000000014
42
0.99999999999999989
10
178.00000000000006
20
-62.757360281755638
10
178
20
-57.242640687119291
42
1.0000000074505806
10
173.75735931288074
20
-53.000000000000007
10
168.24263971824436
20
-53.000000000000007
42
0.99999999999999989
0
LINE
5
115
100
AcDbEntity
8
0
100
AcDbLine
10
344.09667850212776
20
108.47216709204272
30
0
11
351.21756561828715
21
102.11423216690039
31
0
0
ARC
5
116
100
AcDbEntity
8
0
100
AcDbCircle
10
313.57695287197026
20
74.789247029387184
30
0
40
2.9999999999999982
210
0
220
0
230
1
100
AcDbArc
50
93.239700296103152
51
273.23970029610206
0
ARC
5
117
100
AcDbEntity
8
0
100
AcDbCircle
10
290.14499333521655
20
97.985101055046982
30
0
40
2.9999999999999942
210
0
220
0
230
1
100
AcDbArc
50
-44.999999999999652
51
135.0000000000002
0
ARC
5
118
100
AcDbEntity
8
0
100
AcDbCircle
10
290.1449933352165
20
82.227741742166259
30
0
40
3.0000000000000195
210
0
220
0
230
1
100
AcDbArc
50
-135.00000000000037
51
44.999999999999034
0
LINE
5
119
100
AcDbEntity
8
0
100
AcDbLine
10
307.26631396189822
20
166.10642157742058
30
0
11
307.26631396189822
21
158.34906208572588
31
0
0
LINE
5
120
100
AcDbEntity
8
0
100
AcDbLine
10
319.53299927428048
20
66.627517861613001
30
0
11
313.74649280803823
21
71.794041492186423
31
0
0
LINE
5
121
100
AcDbEntity
8
0
100
AcDbLine
10
342.26631367877616
20
128.10642139860664
30
0
11
342.26631367877616
21
112.55640416089494
31
0
0
LINE
5
122
100
AcDbEntity
8
0
100
AcDbLine
10
288.02367299165684
20
80.106421398606628
30
0
11
280.26631367877621
21
80.106421398606628
31
0
0
LINE
5
123
100
AcDbEntity
8
0
100
AcDbLine
10
334.45792056045042
20
148.10642139860664
30
0
11
342.26631367877616
21
148.10642139860664
31
0
0
ARC
5
124
100
AcDbEntity
8
0
100
AcDbCircle
10
345.00481621047527
20
111.33141277975079
30
0
40
2.9999999999999845
210
0
220
0
230
1
100
AcDbArc
50
155.89999999999998
51
252.37940059220426
0
ARC
5
125
100
AcDbEntity
8
0
100
AcDbCircle
10
324.07160265701458
20
86.543254788636773
30
0
40
3.0000000000000329
210
0
220
-0
230
1
100
AcDbArc
50
3.2397002961019932
51
183.239700296102
0
ARC
5
126
100
AcDbEntity
8
0
100
AcDbCircle
10
291.19120983014028
20
51.30568011911501
30
0
40
2.9999999999999938
210
0
220
-0
230
1
100
AcDbArc
50
27.479400592204698
51
111.0000000000006
0
LINE
5
127
100
AcDbEntity
8
0
100
AcDbLine
10
330.26631367877621
20
132.29802828028144
30
0
11
330.26631367877621
21
143.91481451693181
31
0
0
LINE
5
128
100
AcDbEntity
8
0
100
AcDbLine
10
332.85331466045756
20
81.546271094131328
30
0
11
327.06680819421535
21
86.712794724704736
31
0
0
LINE
5
129
100
AcDbEntity
8
0
100
AcDbLine
10
334.50895436589553
20
128.10642139860664
30
0
11
342.26631367877616
21
128.10642139860664
31
0
0
LINE
5
130
100
AcDbEntity
8
0
100
AcDbLine
10
321.07639711981381
20
86.37371485256881
30
0
11
313.40741293590224
21
77.78445256658793
31
0
0
LINE
5
131
100
AcDbEntity
8
0
100
AcDbLine
10
288.02367299165689
20
100.10642139860663
30
0
11
280.26631367877621
21
100.10642139860663
31
0
0
LINE
5
132
100
AcDbEntity
8
0
100
AcDbLine
10
292.26631367877621
20
84.349062085725905
30
0
11
292.26631367877621
21
95.863780711487351
31
0
0
ARC
5
133
100
AcDbEntity
8
0
100
AcDbCircle
10
332.38763402233587
20
145.98510105504701
30
0
40
3.0000000000000067
210
0
220
-0
230
1
100
AcDbArc
50
44.999999999999623
51
224.99999999999923
0
LINE
5
134
100
AcDbEntity
8
0
100
AcDbLine
10
288.02367299165689
20
140.10642139860661
30
0
11
280.26631367877621
21
140.10642139860661
31
0
0
LINE
5
135
100
AcDbEntity
8
0
100
AcDbLine
10
327.26631425992144
20
166.10642157742058
30
0
11
327.26631425992144
21
158.34906208572593
31
0
0
LINE
5
136
100
AcDbEntity
8
0
100
AcDbLine
10
290.11610598150435
20
54.106421398606614
30
0
11
280.26631367877621
21
54.106421398606614
31
0
0
LINE
5
137
100
AcDbEntity
8
0
100
AcDbLine
10
301.21756561828715
20
46.114232166900408
30
0
11
293.85274019164143
21
52.689969154976936
31
0
0
LINE
5
138
100
AcDbEntity
8
0
100
AcDbLine
10
342.26631367877616
20
166.10642139860664
30
0
11
342.26631367877616
21
148.10642139860664
31
0
0
LINE
5
139
100
AcDbEntity
8
0
100
AcDbLine
10
280.26631367877621
20
120.10642139860663
30
0
11
288.02367299165689
21
120.10642139860663
31
0
0
ARC
5
140
100
AcDbEntity
8
0
100
AcDbCircle
10
290.14499333521655
20
122.22774174216627
30
0
40
3.0000000000000067
210
0
220
0
230
1
100
AcDbArc
50
-135.0000000000002
51
45
0
ARC
5
141
100
AcDbEntity
8
0
100
AcDbCircle
10
290.14499333521655
20
137.98510105504698
30
0
40
2.9999999999999942
210
0
220
0
230
1
100
AcDbArc
50
-45
51
135.00000000000037
0
ARC
5
142
100
AcDbEntity
8
0
100
AcDbCircle
10
325.14499391636184
20
156.2277417421663
30
0
40
2.9999999999999813
210
0
220
0
230
1
100
AcDbArc
50
-134.99999999999923
51
45.000000000000384
0
LINE
5
143
100
AcDbEntity
8
0
100
AcDbLine
10
323.02367357280224
20
154.10642139860664
30
0
11
311.5089546490176
21
154.10642139860664
31
0
0
ARC
5
144
100
AcDbEntity
8
0
100
AcDbCircle
10
332.38763402233587
20
130.22774174216624
30
0
40
3.0000000000000195
210
0
220
0
230
1
100
AcDbArc
50
135
51
315.0000000000008
0
LINE
5
145
100
AcDbEntity
8
0
100
AcDbLine
10
292.26631367877621
20
124.34906208572593
30
0
11
292.26631367877621
21
135.86378071148732
31
0
0
ARC
5
146
100
AcDbEntity
8
0
100
AcDbCircle
10
309.38763430545794
20
156.22774174216627
30
0
40
3.0000000000000067
210
0
220
0
230
1
100
AcDbArc
50
135.00000000000153
51
315.00000000000034
0
ARC
5
147
100
AcDbEntity
8
0
100
AcDbCircle
10
404.85657960455035
20
127.72034506738143
30
0
40
3.0000000000000067
210
0
220
0
230
1
100
AcDbArc
50
-135.00000000000037
51
44.999999999999623
0
ARC
5
148
100
AcDbEntity
8
0
100
AcDbCircle
10
429.09922145396024
20
127.72034506738144
30
0
40
3.000000000000032
210
0
220
0
230
1
100
AcDbArc
50
135.0000000000002
51
315.00000000000017
0
ARC
5
149
100
AcDbEntity
8
0
100
AcDbCircle
10
389.85658018569563
20
37.720344098805967
30
0
40
3.0000000000000195
210
0
220
0
230
1
100
AcDbArc
50
-135.00000000000031
51
44.999999999998941
0
ARC
5
150
100
AcDbEntity
8
0
100
AcDbCircle
10
389.85658018569563
20
13.477703113663475
30
0
40
3.0000000000000142
210
0
220
0
230
1
100
AcDbArc
50
-44.999999999998835
51
135.00000000000037
0
ARC
5
151
100
AcDbEntity
8
0
100
AcDbCircle
10
429.09922145396018
20
-76.522295619737832
30
0
40
3.0000000000000195
210
0
220
-0
230
1
100
AcDbArc
50
44.999999999999623
51
224.99999999999923
0
ARC
5
152
100
AcDbEntity
8
0
100
AcDbCircle
10
404.85657960455046
20
-76.522295619737903
30
0
40
3.0000000000000195
210
0
220
0
230
1
100
AcDbArc
50
-45.000000000002089
51
134.99999999999943
0
LINE
5
153
100
AcDbEntity
8
0
100
AcDbLine
10
406.97789994811001
20
-86.400975276178229
30
0
11
406.97789994811001
21
-78.643615963297606
31
0
0
LINE
5
154
100
AcDbEntity
8
0
100
AcDbLine
10
391.97790052925529
20
-74.400975276178201
30
0
11
402.7352592609908
21
-74.400975276178201
31
0
0
LINE
5
155
100
AcDbEntity
8
0
100
AcDbLine
10
426.97790111040058
20
-86.400975276178229
30
0
11
426.97790111040047
21
-78.643615963297492
31
0
0
LINE
5
156
100
AcDbEntity
8
0
100
AcDbLine
10
431.22054179751984
20
-74.400975276178201
30
0
11
441.97790052925529
21
-74.400975276178201
31
0
0
LINE
5
157
100
AcDbEntity
8
0
100
AcDbLine
10
387.73525984213597
20
15.599023457223106
30
0
11
379.97790052925529
21
15.599023457223108
31
0
0
LINE
5
158
100
AcDbEntity
8
0
100
AcDbLine
10
391.97790052925535
20
11.356382770103844
30
0
11
391.97790052925529
21
-74.400975276178201
31
0
0
LINE
5
159
100
AcDbEntity
8
0
100
AcDbLine
10
387.73525984213597
20
35.599023755246328
30
0
11
379.97790052925529
21
35.599023755246336
31
0
0
LINE
5
160
100
AcDbEntity
8
0
100
AcDbLine
10
391.97790052925535
20
39.841664442365605
30
0
11
391.97790052925535
21
125.5990247238218
31
0
0
LINE
5
161
100
AcDbEntity
8
0
100
AcDbLine
10
391.97790052925535
20
125.5990247238218
30
0
11
402.73525926099069
21
125.5990247238218
31
0
0
LINE
5
162
100
AcDbEntity
8
0
100
AcDbLine
10
406.97789994811001
20
129.84166541094106
30
0
11
406.97789994811001
21
137.5990247238218
31
0
0
LINE
5
163
100
AcDbEntity
8
0
100
AcDbLine
10
426.97790111040058
20
129.84166541094109
30
0
11
426.97790111040064
21
137.5990247238218
31
0
0
LINE
5
164
100
AcDbEntity
8
0
100
AcDbLine
10
431.2205417975199
20
125.5990247238218
30
0
11
441.97790052925529
21
125.5990247238218
31
0
0
LWPOLYLINE
5
165
100
AcDbEntity
8
0
100
AcDbPolyline
90
18
70
1
43
0.0
10
240
20
-23.257359312880716
42
0.99999999999999989
10
244.24264068711926
20
-27.5
10
252
20
-27.5
10
254.5
20
-27.5
10
254.5
20
-47.5
10
252
20
-47.5
10
244.24264068711926
20
-47.5
42
0.99999999999999989
10
240
20
-51.742640687119291
10
240
20
-75
10
40
20
-75
10
40
20
-51.742640687119291
42
0.9999999925494194
10
35.757359312880716
20
-47.5
10
25.500000000000007
20
-47.5
10
25.500000000000007
20
-27.5
10
35.757359312880716
20
-27.5
42
0.99999999999999989
10
40
20
-23.257359312880716
10
40
20
0
10
240
20
0
0
ARC
5
166
100
AcDbEntity
8
0
100
AcDbCircle
10
43.247820830578796
20
116.56236748039122
30
0
40
2.9999999999999942
210
0
220
0
230
1
100
AcDbArc
50
-135.00000000000011
51
45.000000000000092
0
ARC
5
167
100
AcDbEntity
8
0
100
AcDbCircle
10
43.247820830578796
20
92.31972679327194
30
0
40
2.9999999999999942
210
0
220
0
230
1
100
AcDbArc
50
-44.999999999999901
51
134.99999999999991
0
ARC
5
168
100
AcDbEntity
8
0
100
AcDbCircle
10
43.247820830578796
20
52.319726793271933
30
0
40
3.0000000000000004
210
0
220
0
230
1
100
AcDbArc
50
-45.000000000000099
51
134.9999999999998
0
ARC
5
169
100
AcDbEntity
8
0
100
AcDbCircle
10
43.247820830578789
20
76.562367480391231
30
0
40
3.0000000000000067
210
0
220
0
230
1
100
AcDbArc
50
-135
51
45
0
ARC
5
170
100
AcDbEntity
8
0
100
AcDbCircle
10
247.49046151769807
20
116.56236748039122
30
0
40
2.9999999999999942
210
0
220
0
230
1
100
AcDbArc
50
134.9999999999998
51
315.00000000000034
0
ARC
5
171
100
AcDbEntity
8
0
100
AcDbCircle
10
247.49046151769807
20
92.31972679327194
30
0
40
2.9999999999999942
210
0
220
-0
230
1
100
AcDbArc
50
44.999999999999808
51
225
0
ARC
5
172
100
AcDbEntity
8
0
100
AcDbCircle
10
247.49046151769807
20
76.562367480391231
30
0
40
3.0000000000000004
210
0
220
0
230
1
100
AcDbArc
50
134.9999999999998
51
315.00000000000017
0
ARC
5
173
100
AcDbEntity
8
0
100
AcDbCircle
10
247.49046151769807
20
52.319726793271926
30
0
40
3.0000000000000067
210
0
220
-0
230
1
100
AcDbArc
50
45
51
225.0000000000004
0
LINE
5
174
100
AcDbEntity
8
0
100
AcDbLine
10
249.61178186125773
20
54.441047136831585
30
0
11
257.36914117413846
21
54.441047136831585
31
0
0
LINE
5
175
100
AcDbEntity
8
0
100
AcDbLine
10
245.36914117413843
20
50.198406449712266
30
0
11
245.36914117413843
21
28.441047136831585
31
0
0
LINE
5
176
100
AcDbEntity
8
0
100
AcDbLine
10
45.369141174138434
20
28.441047136831585
30
0
11
45.369141174138434
21
50.198406449712287
31
0
0
LINE
5
177
100
AcDbEntity
8
0
100
AcDbLine
10
41.126500487019158
20
54.441047136831585
30
0
11
33.369141174138434
21
54.441047136831585
31
0
0
LINE
5
178
100
AcDbEntity
8
0
100
AcDbLine
10
33.369141174138434
20
74.441047136831585
30
0
11
41.126500487019143
21
74.441047136831585
31
0
0
LINE
5
179
100
AcDbEntity
8
0
100
AcDbLine
10
45.369141174138434
20
78.683687823950876
30
0
11
45.369141174138434
21
90.198406449712309
31
0
0
LINE
5
180
100
AcDbEntity
8
0
100
AcDbLine
10
41.126500487019158
20
94.441047136831585
30
0
11
33.369141174138434
21
94.441047136831585
31
0
0
LINE
5
181
100
AcDbEntity
8
0
100
AcDbLine
10
33.369141174138434
20
114.44104713683159
30
0
11
41.126500487019158
21
114.44104713683159
31
0
0
LINE
5
182
100
AcDbEntity
8
0
100
AcDbLine
10
45.369141174138434
20
118.68368782395086
30
0
11
45.369141174138434
21
140.4410471368316
31
0
0
LINE
5
183
100
AcDbEntity
8
0
100
AcDbLine
10
245.36914117413843
20
140.4410471368316
30
0
11
245.36914117413843
21
118.68368782395086
31
0
0
LINE
5
184
100
AcDbEntity
8
0
100
AcDbLine
10
249.61178186125773
20
114.44104713683159
30
0
11
257.36914117413846
21
114.44104713683159
31
0
0
LINE
5
185
100
AcDbEntity
8
0
100
AcDbLine
10
249.61178186125773
20
94.441047136831585
30
0
11
257.36914117413846
21
94.441047136831585
31
0
0
LINE
5
186
100
AcDbEntity
8
0
100
AcDbLine
10
245.36914117413843
20
90.198406449712309
30
0
11
245.36914117413843
21
78.683687823950876
31
0
0
LINE
5
187
100
AcDbEntity
8
0
100
AcDbLine
10
249.61178186125773
20
74.441047136831585
30
0
11
257.36914117413846
21
74.441047136831585
31
0
0
LINE
5
188
100
AcDbEntity
8
0
100
AcDbLine
10
33.369141174138434
20
114.44104713683159
30
0
11
30.869141174138434
21
114.44104713683159
31
0
0
LINE
5
189
100
AcDbEntity
8
0
100
AcDbLine
10
30.869141174138434
20
114.44104713683159
30
0
11
30.869141174138434
21
94.441047136831585
31
0
0
LINE
5
190
100
AcDbEntity
8
0
100
AcDbLine
10
30.869141174138434
20
94.441047136831585
30
0
11
33.369141174138434
21
94.441047136831585
31
0
0
LINE
5
191
100
AcDbEntity
8
0
100
AcDbLine
10
33.369141174138434
20
74.441047136831585
30
0
11
30.869141174138434
21
74.441047136831585
31
0
0
LINE
5
192
100
AcDbEntity
8
0
100
AcDbLine
10
30.869141174138434
20
74.441047136831585
30
0
11
30.869141174138434
21
54.441047136831585
31
0
0
LINE
5
193
100
AcDbEntity
8
0
100
AcDbLine
10
30.869141174138434
20
54.441047136831585
30
0
11
33.369141174138434
21
54.441047136831585
31
0
0
LINE
5
194
100
AcDbEntity
8
0
100
AcDbLine
10
257.36914117413846
20
114.44104713683159
30
0
11
259.86914117413846
21
114.44104713683159
31
0
0
LINE
5
195
100
AcDbEntity
8
0
100
AcDbLine
10
259.86914117413846
20
114.44104713683159
30
0
11
259.86914117413846
21
94.441047136831585
31
0
0
LINE
5
196
100
AcDbEntity
8
0
100
AcDbLine
10
259.86914117413846
20
94.441047136831585
30
0
11
257.36914117413846
21
94.441047136831585
31
0
0
LINE
5
197
100
AcDbEntity
8
0
100
AcDbLine
10
257.36914117413846
20
74.441047136831585
30
0
11
259.86914117413846
21
74.441047136831585
31
0
0
LINE
5
198
100
AcDbEntity
8
0
100
AcDbLine
10
259.86914117413846
20
74.441047136831585
30
0
11
259.86914117413846
21
54.441047136831585
31
0
0
LINE
5
199
100
AcDbEntity
8
0
100
AcDbLine
10
259.86914117413846
20
54.441047136831585
30
0
11
257.36914117413846
21
54.441047136831585
31
0
0
LINE
5
200
100
AcDbEntity
8
0
100
AcDbLine
10
332.85331466045756
20
81.546271094131328
30
0
11
334.71815881452233
21
79.881231670859194
31
0
0
LINE
5
201
100
AcDbEntity
8
0
100
AcDbLine
10
351.21756561828715
20
102.11423216690039
30
0
11
353.08240977235198
21
100.44919274362827
31
0
0
LINE
5
202
100
AcDbEntity
8
0
100
AcDbLine
10
353.08240977235198
20
100.44919274362827
30
0
11
334.71815881452233
21
79.881231670859194
31
0
0
LINE
5
203
100
AcDbEntity
8
0
100
AcDbLine
10
301.21756561828715
20
46.114232166900408
30
0
11
303.08240977235198
21
44.449192743628281
31
0
0
LINE
5
204
100
AcDbEntity
8
0
100
AcDbLine
10
319.53299927428048
20
66.627517861613001
30
0
11
321.39784342834525
21
64.962478438340852
31
0
0
LINE
5
205
100
AcDbEntity
8
0
100
AcDbLine
10
321.39784342834525
20
64.962478438340852
30
0
11
303.08240977235198
21
44.449192743628281
31
0
0
LINE
5
206
100
AcDbEntity
8
0
100
AcDbLine
10
280.26631367877621
20
80.106421398606628
30
0
11
277.76631367877621
21
80.106421398606628
31
0
0
LINE
5
207
100
AcDbEntity
8
0
100
AcDbLine
10
277.76631367877621
20
80.106421398606628
30
0
11
277.76631367877621
21
54.106421398606614
31
0
0
LINE
5
208
100
AcDbEntity
8
0
100
AcDbLine
10
277.76631367877621
20
54.106421398606614
30
0
11
280.26631367877621
21
54.106421398606614
31
0
0
LINE
5
209
100
AcDbEntity
8
0
100
AcDbLine
10
280.26631367877621
20
100.10642139860663
30
0
11
277.76631367877621
21
100.10642139860663
31
0
0
LINE
5
210
100
AcDbEntity
8
0
100
AcDbLine
10
277.76631367877621
20
100.10642139860663
30
0
11
277.76631367877621
21
120.10642139860663
31
0
0
LINE
5
211
100
AcDbEntity
8
0
100
AcDbLine
10
277.76631367877621
20
120.10642139860663
30
0
11
280.26631367877621
21
120.10642139860663
31
0
0
LINE
5
212
100
AcDbEntity
8
0
100
AcDbLine
10
280.26631367877621
20
140.10642139860661
30
0
11
277.76631367877621
21
140.10642139860661
31
0
0
LINE
5
213
100
AcDbEntity
8
0
100
AcDbLine
10
277.76631367877621
20
140.10642139860661
30
0
11
277.76631350658499
21
166.10642139860664
31
0
0
LINE
5
214
100
AcDbEntity
8
0
100
AcDbLine
10
277.76631350658499
20
166.10642139860664
30
0
11
277.76631349002815
21
168.60642139860664
31
0
0
LINE
5
215
100
AcDbEntity
8
0
100
AcDbLine
10
277.76631349002815
20
168.60642139860664
30
0
11
307.26631396189822
21
168.60642139860664
31
0
0
LINE
5
216
100
AcDbEntity
8
0
100
AcDbLine
10
307.26631396189822
20
166.10642157742058
30
0
11
307.26631396189822
21
168.60642139860664
31
0
0
LINE
5
217
100
AcDbEntity
8
0
100
AcDbLine
10
327.26631425992144
20
166.10642157742058
30
0
11
327.26631425992144
21
168.60642157742058
31
0
0
LINE
5
218
100
AcDbEntity
8
0
100
AcDbLine
10
327.26631425992144
20
168.60642157742058
30
0
11
342.26631367877616
21
168.60642157742058
31
0
0
LINE
5
219
100
AcDbEntity
8
0
100
AcDbLine
10
342.26631367877616
20
168.60642157742058
30
0
11
342.26631367877616
21
166.10642139860664
31
0
0
ARC
5
220
100
AcDbEntity
8
0
100
AcDbCircle
10
332.38763402233587
20
-19.772258257833748
30
0
40
3.0000000000000195
210
0
220
0
230
1
100
AcDbArc
50
135.00000000000031
51
315.00000000000051
0
LINE
5
221
100
AcDbEntity
8
0
100
AcDbLine
10
334.45792056045042
20
-1.8935786013933686
30
0
11
342.26631367877616
21
-1.8935786013933686
31
0
0
LINE
5
222
100
AcDbEntity
8
0
100
AcDbLine
10
277.76631349002815
20
18.606421398606656
30
0
11
307.26631396189822
21
18.606421398606656
31
0
0
LINE
5
223
100
AcDbEntity
8
0
100
AcDbLine
10
323.02367357280224
20
4.1064213986066456
30
0
11
311.5089546490176
21
4.1064213986066456
31
0
0
LINE
5
224
100
AcDbEntity
8
0
100
AcDbLine
10
307.26631396189822
20
16.106421577420562
30
0
11
307.26631396189822
21
18.606421398606656
31
0
0
LINE
5
225
100
AcDbEntity
8
0
100
AcDbLine
10
342.26631367877616
20
16.106421398606656
30
0
11
342.26631367877616
21
-1.8935786013933686
31
0
0
LINE
5
226
100
AcDbEntity
8
0
100
AcDbLine
10
344.09667850212776
20
-41.527832907957283
30
0
11
351.21756561828715
21
-47.885767833099599
31
0
0
LINE
5
227
100
AcDbEntity
8
0
100
AcDbLine
10
277.76631367877621
20
-9.8935786013933757
30
0
11
277.76631350658499
21
16.106421398606656
31
0
0
LINE
5
228
100
AcDbEntity
8
0
100
AcDbLine
10
327.26631425992144
20
18.606421577420562
30
0
11
342.26631367877616
21
18.606421577420562
31
0
0
LINE
5
229
100
AcDbEntity
8
0
100
AcDbLine
10
334.50895436589553
20
-21.893578601393369
30
0
11
342.26631367877616
21
-21.893578601393369
31
0
0
LINE
5
230
100
AcDbEntity
8
0
100
AcDbLine
10
353.08240977235198
20
-49.550807256371726
30
0
11
334.71815881452233
21
-70.118768329140806
31
0
0
LINE
5
231
100
AcDbEntity
8
0
100
AcDbLine
10
321.39784342834525
20
-85.037521561659148
30
0
11
303.08240977235198
21
-105.55080725637171
31
0
0
LINE
5
232
100
AcDbEntity
8
0
100
AcDbLine
10
277.76631367877621
20
-49.893578601393372
30
0
11
277.76631367877621
21
-29.893578601393376
31
0
0
LINE
5
233
100
AcDbEntity
8
0
100
AcDbLine
10
342.26631367877616
20
-21.893578601393369
30
0
11
342.26631367877616
21
-37.443595839105051
31
0
0
LINE
5
234
100
AcDbEntity
8
0
100
AcDbLine
10
290.11610598150435
20
-95.893578601393386
30
0
11
280.26631367877621
21
-95.893578601393386
31
0
0
LINE
5
235
100
AcDbEntity
8
0
100
AcDbLine
10
280.26631367877621
20
-9.8935786013933757
30
0
11
277.76631367877621
21
-9.8935786013933757
31
0
0
LINE
5
236
100
AcDbEntity
8
0
100
AcDbLine
10
327.26631425992144
20
16.106421577420562
30
0
11
327.26631425992144
21
18.606421577420562
31
0
0
ARC
5
237
100
AcDbEntity
8
0
100
AcDbCircle
10
345.00481621047527
20
-38.668587220249208
30
0
40
2.9999999999999845
210
0
220
0
230
1
100
AcDbArc
50
155.89999999999984
51
252.37940059220429
0
LINE
5
238
100
AcDbEntity
8
0
100
AcDbLine
10
307.26631396189822
20
16.106421577420562
30
0
11
307.26631396189822
21
8.3490620857258868
31
0
0
LINE
5
239
100
AcDbEntity
8
0
100
AcDbLine
10
327.26631425992144
20
16.106421577420562
30
0
11
327.26631425992144
21
8.3490620857259401
31
0
0
LINE
5
240
100
AcDbEntity
8
0
100
AcDbLine
10
277.76631350658499
20
16.106421398606656
30
0
11
277.76631349002815
21
18.606421398606656
31
0
0
LINE
5
241
100
AcDbEntity
8
0
100
AcDbLine
10
330.26631367877621
20
-17.70197171971855
30
0
11
330.26631367877621
21
-6.0851854830681873
31
0
0
LINE
5
242
100
AcDbEntity
8
0
100
AcDbLine
10
280.26631367877621
20
-49.893578601393372
30
0
11
277.76631367877621
21
-49.893578601393372
31
0
0
LINE
5
243
100
AcDbEntity
8
0
100
AcDbLine
10
319.53299927428048
20
-83.372482138386999
30
0
11
321.39784342834525
21
-85.037521561659148
31
0
0
ARC
5
244
100
AcDbEntity
8
0
100
AcDbCircle
10
309.38763430545794
20
6.2277417421662662
30
0
40
3.0000000000000067
210
0
220
0
230
1
100
AcDbArc
50
135.00000000000131
51
315.00000000000051
0
LINE
5
245
100
AcDbEntity
8
0
100
AcDbLine
10
342.26631367877616
20
18.606421577420562
30
0
11
342.26631367877616
21
16.106421398606656
31
0
0
ARC
5
246
100
AcDbEntity
8
0
100
AcDbCircle
10
290.14499333521655
20
-52.014898944953018
30
0
40
2.9999999999999942
210
0
220
0
230
1
100
AcDbArc
50
-44.999999999999652
51
135.0000000000002
0
LINE
5
247
100
AcDbEntity
8
0
100
AcDbLine
10
332.85331466045756
20
-68.453728905868672
30
0
11
334.71815881452233
21
-70.118768329140806
31
0
0
ARC
5
248
100
AcDbEntity
8
0
100
AcDbCircle
10
291.19120983014028
20
-98.69431988088499
30
0
40
2.9999999999999938
210
0
220
-0
230
1
100
AcDbArc
50
27.479400592204698
51
111.0000000000006
0
ARC
5
249
100
AcDbEntity
8
0
100
AcDbCircle
10
290.14499333521655
20
-12.014898944953032
30
0
40
2.9999999999999942
210
0
220
0
230
1
100
AcDbArc
50
-44.999999999999694
51
135.00000000000006
0
LINE
5
250
100
AcDbEntity
8
0
100
AcDbLine
10
288.02367299165689
20
-9.8935786013933757
30
0
11
280.26631367877621
21
-9.8935786013933757
31
0
0
LINE
5
251
100
AcDbEntity
8
0
100
AcDbLine
10
292.26631367877621
20
-65.650937914274095
30
0
11
292.26631367877621
21
-54.136219288512649
31
0
0
LINE
5
252
100
AcDbEntity
8
0
100
AcDbLine
10
319.53299927428048
20
-83.372482138386999
30
0
11
313.74649280803823
21
-78.205958507813577
31
0
0
LINE
5
253
100
AcDbEntity
8
0
100
AcDbLine
10
288.02367299165684
20
-69.893578601393372
30
0
11
280.26631367877621
21
-69.893578601393372
31
0
0
LINE
5
254
100
AcDbEntity
8
0
100
AcDbLine
10
321.07639711981381
20
-63.626285147431183
30
0
11
313.40741293590224
21
-72.21554743341207
31
0
0
LINE
5
255
100
AcDbEntity
8
0
100
AcDbLine
10
301.21756561828715
20
-103.88576783309959
30
0
11
293.85274019164143
21
-97.310030845023064
31
0
0
LINE
5
256
100
AcDbEntity
8
0
100
AcDbLine
10
288.02367299165689
20
-49.893578601393372
30
0
11
280.26631367877621
21
-49.893578601393372
31
0
0
ARC
5
257
100
AcDbEntity
8
0
100
AcDbCircle
10
313.57695287197026
20
-75.210752970612816
30
0
40
2.9999999999999982
210
0
220
0
230
1
100
AcDbArc
50
93.239700296103152
51
273.23970029610206
0
ARC
5
258
100
AcDbEntity
8
0
100
AcDbCircle
10
290.14499333521655
20
-27.77225825783372
30
0
40
3.0000000000000067
210
0
220
0
230
1
100
AcDbArc
50
-135.00000000000006
51
44.999999999999957
0
LINE
5
259
100
AcDbEntity
8
0
100
AcDbLine
10
277.76631367877621
20
-29.893578601393376
30
0
11
280.26631367877621
21
-29.893578601393376
31
0
0
LINE
5
260
100
AcDbEntity
8
0
100
AcDbLine
10
277.76631367877621
20
-69.893578601393372
30
0
11
277.76631367877621
21
-95.893578601393386
31
0
0
LINE
5
261
100
AcDbEntity
8
0
100
AcDbLine
10
351.21756561828715
20
-47.885767833099599
30
0
11
353.08240977235198
21
-49.550807256371726
31
0
0
ARC
5
262
100
AcDbEntity
8
0
100
AcDbCircle
10
332.38763402233587
20
-4.0148989449529893
30
0
40
3.0000000000000067
210
0
220
-0
230
1
100
AcDbArc
50
44.999999999999474
51
224.99999999999923
0
LINE
5
263
100
AcDbEntity
8
0
100
AcDbLine
10
301.21756561828715
20
-103.88576783309959
30
0
11
303.08240977235198
21
-105.55080725637171
31
0
0
ARC
5
264
100
AcDbEntity
8
0
100
AcDbCircle
10
324.07160265701458
20
-63.456745211363227
30
0
40
3.0000000000000329
210
0
220
-0
230
1
100
AcDbArc
50
3.2397002961019932
51
183.23970029610189
0
LINE
5
265
100
AcDbEntity
8
0
100
AcDbLine
10
280.26631367877621
20
-69.893578601393372
30
0
11
277.76631367877621
21
-69.893578601393372
31
0
0
LINE
5
266
100
AcDbEntity
8
0
100
AcDbLine
10
332.85331466045756
20
-68.453728905868672
30
0
11
327.06680819421535
21
-63.287205275295264
31
0
0
LINE
5
267
100
AcDbEntity
8
0
100
AcDbLine
10
280.26631367877621
20
-29.893578601393376
30
0
11
288.02367299165689
21
-29.893578601393376
31
0
0
LINE
5
268
100
AcDbEntity
8
0
100
AcDbLine
10
292.26631367877621
20
-25.650937914274063
30
0
11
292.26631367877621
21
-14.13621928851267
31
0
0
ARC
5
269
100
AcDbEntity
8
0
100
AcDbCircle
10
290.1449933352165
20
-67.772258257833741
30
0
40
3.0000000000000195
210
0
220
0
230
1
100
AcDbArc
50
-135.00000000000037
51
44.999999999999034
0
ARC
5
270
100
AcDbEntity
8
0
100
AcDbCircle
10
325.14499391636184
20
6.2277417421663017
30
0
40
2.9999999999999813
210
0
220
0
230
1
100
AcDbArc
50
-134.99999999999929
51
45.000000000000483
0
LINE
5
271
100
AcDbEntity
8
0
100
AcDbLine
10
277.76631367877621
20
-95.893578601393386
30
0
11
280.26631367877621
21
-95.893578601393386
31
0
0
LINE
5
272
100
AcDbEntity
8
0
100
AcDbLine
10
379.97790052925529
20
35.599023755246336
30
0
11
377.47790052925529
21
35.599023755246336
31
0
0
LINE
5
273
100
AcDbEntity
8
0
100
AcDbLine
10
377.47790052925529
20
35.599023755246336
30
0
11
377.47790052925529
21
15.599023755246332
31
0
0
LINE
5
274
100
AcDbEntity
8
0
100
AcDbLine
10
377.47790052925529
20
15.599023755246332
30
0
11
379.97790052925529
21
15.599023457223108
31
0
0
LINE
5
275
100
AcDbEntity
8
0
100
AcDbLine
10
426.97790111040064
20
137.5990247238218
30
0
11
426.97790111040064
21
140.0990247238218
31
0
0
LINE
5
276
100
AcDbEntity
8
0
100
AcDbLine
10
426.97790111040064
20
140.0990247238218
30
0
11
406.97789994811001
21
140.0990247238218
31
0
0
LINE
5
277
100
AcDbEntity
8
0
100
AcDbLine
10
406.97789994811001
20
140.0990247238218
30
0
11
406.97789994811001
21
137.5990247238218
31
0
0
LINE
5
278
100
AcDbEntity
8
0
100
AcDbLine
10
426.97790111040058
20
-86.400975276178229
30
0
11
426.97790111040058
21
-88.900975276178229
31
0
0
LINE
5
279
100
AcDbEntity
8
0
100
AcDbLine
10
426.97790111040058
20
-88.900975276178229
30
0
11
406.97789994811001
21
-88.900975276178229
31
0
0
LINE
5
280
100
AcDbEntity
8
0
100
AcDbLine
10
406.97789994811001
20
-88.900975276178229
30
0
11
406.97789994811001
21
-86.400975276178229
31
0
0
LWPOLYLINE
5
281
100
AcDbEntity
8
0
100
AcDbPolyline
90
8
70
1
43
0.0
10
142.75735931288074
20
-53.000000000000007
10
137.24263971824436
20
-53.000000000000007
42
0.99999999999999989
10
133
20
-57.242641655994014
10
132.99999903112518
20
-62.757360281755581
42
0.99999999999999989
10
137.2426397182445
20
-67.000000968874843
10
142.75735834400604
20
-67.000000000000014
42
0.99999999999999989
10
147.00000000000006
20
-62.757360281755638
10
147
20
-57.242640687119291
42
1.0000000074505806
0
LWPOLYLINE
5
282
100
AcDbEntity
8
0
100
AcDbPolyline
90
8
70
1
43
0.0
10
111.75735931288074
20
-53.000000000000007
10
106.24263971824436
20
-53.000000000000007
42
0.99999999999999989
10
102
20
-57.242641655994014
10
101.9999990311252
20
-62.757360281755581
42
0.99999999999999989
10
106.2426397182445
20
-67.000000968874843
10
111.75735834400605
20
-67.000000000000014
42
0.99999999999999989
10
116.00000000000006
20
-62.757360281755638
10
116.00000000000001
20
-57.242640687119291
42
1.0000000074505806
0
LWPOLYLINE
5
283
100
AcDbEntity
8
0
100
AcDbPolyline
90
8
70
1
43
0.0
10
219.25735931144192
20
-39.5
10
155.24264065574388
20
-39.500000031375365
42
-0.9999999925494194
10
150.99999999976521
20
-35.257359313115487
10
150.99999999856124
20
-17.742640895735548
42
-0.99999999999999989
10
155.2426406856805
20
-13.500000208616257
10
219.25735931311544
20
-13.500000208381483
42
-0.99999999999999989
10
223.49999999976518
20
-17.742640895970322
10
223.50000003017132
20
-35.257359344490851
42
-0.9999999925494194
0
LWPOLYLINE
5
284
100
AcDbEntity
8
0
100
AcDbPolyline
90
8
70
1
43
0.0
10
223.25735491907923
20
-8.0000000000000036
10
151.24264508092085
20
-8.0000000000000036
42
0.99999999999999989
10
147
20
-12.242636293313179
10
147
20
-40.757359312880723
42
0.9999999925494194
10
151.24264068711926
20
-45
10
223.25735931288082
20
-45
42
0.9999999925494194
10
227.50000000000011
20
-40.757359312880723
10
227.50000000000011
20
-12.242636293313179
42
0.99999999999999989
0
LWPOLYLINE
5
285
100
AcDbEntity
8
0
100
AcDbPolyline
90
8
70
1
43
0.0
10
128.75735931288082
20
-45
42
0.9999999925494194
10
133.00000000000009
20
-40.757359312880723
10
133.00000000000009
20
-12.242636293313179
42
0.99999999999999989
10
128.75735491907923
20
-8.0000000000000036
10
56.742645080920852
20
-8.0000000000000036
42
0.99999999999999989
10
52.499999999999986
20
-12.242636293313179
10
52.499999999999986
20
-40.757359312880723
42
0.9999999925494194
10
56.742640687119263
20
-45
0
LWPOLYLINE
5
286
100
AcDbEntity
8
0
100
AcDbPolyline
90
8
70
1
43
0.0
10
128.99999999976518
20
-17.742640895970322
42
0.99999999999999989
10
124.75735931288065
20
-13.500000208616257
10
60.742640685680499
20
-13.500000208616257
42
0.99999999999999989
10
56.499999998796007
20
-17.742640895970322
10
56.499999999765208
20
-35.257359313115487
42
0.9999999925494194
10
60.742640687119248
20
-39.5
10
124.75735931144192
20
-39.5
42
0.9999999925494194
10
128.99999999879594
20
-35.257359313115487
0
LINE
5
287
100
AcDbEntity
8
0
100
AcDbLine
10
135.36914117413843
20
140.4410471368316
30
0
11
135.36914097235186
21
142.94104713683157
31
0
0
LINE
5
288
100
AcDbEntity
8
0
100
AcDbLine
10
45.369141174138434
20
140.4410471368316
30
0
11
45.369141174138434
21
142.9410471368316
31
0
0
LINE
5
289
100
AcDbEntity
8
0
100
AcDbLine
10
45.369141174138434
20
142.9410471368316
30
0
11
135.36914097235186
21
142.94104713683157
31
0
0
LINE
5
290
100
AcDbEntity
8
0
100
AcDbLine
10
155.36914117413843
20
140.4410471368316
30
0
11
155.36914091026367
21
142.94104713683137
31
0
0
LINE
5
291
100
AcDbEntity
8
0
100
AcDbLine
10
245.36914117413843
20
140.4410471368316
30
0
11
245.36914117413843
21
142.9410471368316
31
0
0
LINE
5
292
100
AcDbEntity
8
0
100
AcDbLine
10
245.36914117413843
20
142.9410471368316
30
0
11
155.36914091026367
21
142.94104713683137
31
0
0
ENDSEC
0
SECTION
2
OBJECTS
0
DICTIONARY
5
C
100
AcDbDictionary
3
ACAD_GROUP
350
D
3
ACAD_MLINESTYLE
350
17
0
DICTIONARY
5
D
100
AcDbDictionary
0
DICTIONARY
5
1A
330
C
100
AcDbDictionary
0
DICTIONARY
5
17
100
AcDbDictionary
0
ENDSEC
0
EOF
