0
SECTION
2
HEADER
9
$INSUNITS
70
4
9
$ACADVER
1
AC1014
9
$HANDSEED
5
FFFF
0
ENDSEC
0
SECTION
2
TABLES
0
TABLE
2
VPORT
5
8
100
AcDbSymbolTable
0
ENDTAB
0
TABLE
2
LTYPE
5
5
100
AcDbSymbolTable
0
LTYPE
5
14
100
AcDbSymbolTableRecord
100
AcDbLinetypeTableRecord
2
BYBLOCK
70
0
0
LTYPE
5
15
100
AcDbSymbolTableRecord
100
AcDbLinetypeTableRecord
2
BYLAYER
70
0
0
LTYPE
5
16
100
AcDbSymbolTableRecord
100
AcDbLinetypeTableRecord
2
DASHED
70
0
3
Dashed __ __ __ __ __ __ __ __ __ __ __ __ __ _
72
65
73
2
40
0.75
49
0.5
74
0
49
-0.25
74
0
0
ENDTAB
0
TABLE
2
LAYER
5
2
100
AcDbSymbolTable
70
2
0
LAYER
5
50
100
AcDbSymbolTableRecord
100
AcDbLayerTableRecord
2
0
70
0
62
7
6
CONTINUOUS
0
ENDTAB
0
TABLE
2
STYLE
5
3
100
AcDbSymbolTable
70
1
0
STYLE
5
11
100
AcDbSymbolTableRecord
100
AcDbTextStyleTableRecord
2
STANDARD
70
0
0
ENDTAB
0
TABLE
2
VIEW
5
6
100
AcDbSymbolTable
70
0
0
ENDTAB
0
TABLE
2
UCS
5
7
100
AcDbSymbolTable
70
0
0
ENDTAB
0
TABLE
2
APPID
5
9
100
AcDbSymbolTable
70
2
0
APPID
5
12
100
AcDbSymbolTableRecord
100
AcDbRegAppTableRecord
2
ACAD
70
0
0
ENDTAB
0
TABLE
2
DIMSTYLE
5
A
100
AcDbSymbolTable
70
1
0
ENDTAB
0
TABLE
2
BLOCK_RECORD
5
1
100
AcDbSymbolTable
70
1
0
BLOCK_RECORD
5
1F
100
AcDbSymbolTableRecord
100
AcDbBlockTableRecord
2
*MODEL_SPACE
0
BLOCK_RECORD
5
1B
100
AcDbSymbolTableRecord
100
AcDbBlockTableRecord
2
*PAPER_SPACE
0
ENDTAB
0
ENDSEC
0
SECTION
2
BLOCKS
0
BLOCK
5
20
100
AcDbEntity
100
AcDbBlockBegin
2
*MODEL_SPACE
0
ENDBLK
5
21
100
AcDbEntity
100
AcDbBlockEnd
0
BLOCK
5
1C
100
AcDbEntity
100
AcDbBlockBegin
2
*PAPER_SPACE
0
ENDBLK
5
1D
100
AcDbEntity
100
AcDbBlockEnd
0
ENDSEC
0
SECTION
2
ENTITIES
0
CIRCLE
5
100
100
AcDbEntity
8
0
100
AcDbCircle
10
401.77790052925531
20
25.599023457223105
30
0
40
5.7999999999999829
210
0
220
0
230
1
0
LWPOLYLINE
5
101
100
AcDbEntity
8
0
100
AcDbPolyline
90
50
70
1
43
0.0
10
155.36914117413843
20
36.198406449712294
42
0.99999999999999989
10
151.12650048701914
20
40.441047136831578
10
139.61178186125775
20
40.441047136831578
42
0.99999999999999989
10
135.36914117413843
20
36.198406449712301
10
135.36914117413843
20
28.441047136831582
10
45.369141174138434
20
28.441047136831585
10
45.369141174138434
20
50.198406449712287
42
0.99999999999999989
10
41.126500487019158
20
54.441047136831585
10
33.369141174138434
20
54.441047136831585
10
30.869141174138434
20
54.441047136831585
10
30.869141174138434
20
74.441047136831585
10
33.369141174138434
20
74.441047136831585
10
41.126500487019143
20
74.441047136831585
42
0.99999999999999989
10
45.369141174138434
20
78.683687823950876
10
45.369141174138434
20
90.198406449712309
42
0.9999999925494194
10
41.126500487019158
20
94.441047136831585
10
33.369141174138434
20
94.441047136831585
10
30.869141174138434
20
94.441047136831585
10
30.869141174138434
20
114.44104713683159
10
33.369141174138434
20
114.44104713683159
10
41.126500487019158
20
114.44104713683159
42
0.9999999925494194
10
45.369141174138434
20
118.68368782395086
10
45.369141174138434
20
140.4410471368316
10
45.369141174138434
20
142.9410471368316
10
135.36914097235186
20
142.94104713683157
10
135.36914180027077
20
132.68368891201911
42
0.99999991906598173
10
139.6117828298332
20
128.44104856734305
10
151.12650175361784
20
128.44104856734305
42
1.0000001056302161
10
155.36914199292679
20
132.6836897022726
10
155.36914091026367
20
142.94104713683137
10
245.36914117413843
20
142.9410471368316
10
245.36914117413843
20
140.4410471368316
10
245.36914117413843
20
118.68368782395086
42
0.9999999925494194
10
249.61178186125773
20
114.44104713683159
10
257.36914117413846
20
114.44104713683159
10
259.86914117413846
20
114.44104713683159
10
259.86914117413846
20
94.441047136831585
10
257.36914117413846
20
94.441047136831585
10
249.61178186125773
20
94.441047136831585
42
0.9999999925494194
10
245.36914117413843
20
90.198406449712309
10
245.36914117413843
20
78.683687823950876
42
0.99999999999999989
10
249.61178186125773
20
74.441047136831585
10
257.36914117413846
20
74.441047136831585
10
259.86914117413846
20
74.441047136831585
10
259.86914117413846
20
54.441047136831585
10
257.36914117413846
20
54.441047136831585
10
249.61178186125773
20
54.441047136831585
42
0.99999999999999989
10
245.36914117413843
20
50.198406449712266
10
245.36914117413843
20
28.441047136831585
10
155.36914117413843
20
28.441047136831582
0
LINE
5
102
100
AcDbEntity
8
0
100
AcDbLine
10
344.09667850212776
20
108.47216709204272
30
0
11
351.21756561828715
21
102.11423216690039
31
0
0
ARC
5
103
100
AcDbEntity
8
0
100
AcDbCircle
10
313.57695287197026
20
74.789247029387184
30
0
40
2.9999999999999982
210
0
220
0
230
1
100
AcDbArc
50
93.239700296103152
51
273.23970029610206
0
ARC
5
104
100
AcDbEntity
8
0
100
AcDbCircle
10
290.14499333521655
20
97.985101055046982
30
0
40
2.9999999999999942
210
0
220
0
230
1
100
AcDbArc
50
-44.999999999999652
51
135.0000000000002
0
ARC
5
105
100
AcDbEntity
8
0
100
AcDbCircle
10
290.1449933352165
20
82.227741742166259
30
0
40
3.0000000000000195
210
0
220
0
230
1
100
AcDbArc
50
-135.00000000000037
51
44.999999999999034
0
LINE
5
106
100
AcDbEntity
8
0
100
AcDbLine
10
307.26631396189822
20
166.10642157742058
30
0
11
307.26631396189822
21
158.34906208572588
31
0
0
LINE
5
107
100
AcDbEntity
8
0
100
AcDbLine
10
319.53299927428048
20
66.627517861613001
30
0
11
313.74649280803823
21
71.794041492186423
31
0
0
LINE
5
108
100
AcDbEntity
8
0
100
AcDbLine
10
342.26631367877616
20
128.10642139860664
30
0
11
342.26631367877616
21
112.55640416089494
31
0
0
LINE
5
109
100
AcDbEntity
8
0
100
AcDbLine
10
288.02367299165684
20
80.106421398606628
30
0
11
280.26631367877621
21
80.106421398606628
31
0
0
ARC
5
110
100
AcDbEntity
8
0
100
AcDbCircle
10
345.00481621047527
20
111.33141277975079
30
0
40
2.9999999999999845
210
0
220
0
230
1
100
AcDbArc
50
155.89999999999998
51
252.37940059220426
0
ARC
5
111
100
AcDbEntity
8
0
100
AcDbCircle
10
324.07160265701458
20
86.543254788636773
30
0
40
3.0000000000000329
210
0
220
-0
230
1
100
AcDbArc
50
3.2397002961019932
51
183.239700296102
0
ARC
5
112
100
AcDbEntity
8
0
100
AcDbCircle
10
291.19120983014028
20
51.30568011911501
30
0
40
2.9999999999999938
210
0
220
-0
230
1
100
AcDbArc
50
27.479400592204698
51
111.0000000000006
0
LINE
5
113
100
AcDbEntity
8
0
100
AcDbLine
10
332.85331466045756
20
81.546271094131328
30
0
11
327.06680819421535
21
86.712794724704736
31
0
0
LINE
5
114
100
AcDbEntity
8
0
100
AcDbLine
10
321.07639711981381
20
86.37371485256881
30
0
11
313.40741293590224
21
77.78445256658793
31
0
0
LINE
5
115
100
AcDbEntity
8
0
100
AcDbLine
10
288.02367299165689
20
100.10642139860663
30
0
11
280.26631367877621
21
100.10642139860663
31
0
0
LINE
5
116
100
AcDbEntity
8
0
100
AcDbLine
10
292.26631367877621
20
84.349062085725905
30
0
11
292.26631367877621
21
95.863780711487351
31
0
0
ARC
5
117
100
AcDbEntity
8
0
100
AcDbCircle
10
332.38763402233587
20
145.98510105504701
30
0
40
3.0000000000000067
210
0
220
-0
230
1
100
AcDbArc
50
44.999999999999623
51
224.99999999999923
0
LINE
5
118
100
AcDbEntity
8
0
100
AcDbLine
10
288.02367299165689
20
140.10642139860661
30
0
11
280.26631367877621
21
140.10642139860661
31
0
0
LINE
5
119
100
AcDbEntity
8
0
100
AcDbLine
10
327.26631425992144
20
166.10642157742058
30
0
11
327.26631425992144
21
158.34906208572593
31
0
0
LINE
5
120
100
AcDbEntity
8
0
100
AcDbLine
10
290.11610598150435
20
54.106421398606614
30
0
11
280.26631367877621
21
54.106421398606614
31
0
0
LINE
5
121
100
AcDbEntity
8
0
100
AcDbLine
10
301.21756561828715
20
46.114232166900408
30
0
11
293.85274019164143
21
52.689969154976936
31
0
0
LINE
5
122
100
AcDbEntity
8
0
100
AcDbLine
10
342.26631367877616
20
166.10642139860664
30
0
11
342.26631367877616
21
148.10642139860664
31
0
0
LINE
5
123
100
AcDbEntity
8
0
100
AcDbLine
10
280.26631367877621
20
120.10642139860663
30
0
11
288.02367299165689
21
120.10642139860663
31
0
0
ARC
5
124
100
AcDbEntity
8
0
100
AcDbCircle
10
290.14499333521655
20
122.22774174216627
30
0
40
3.0000000000000067
210
0
220
0
230
1
100
AcDbArc
50
-135.0000000000002
51
45
0
ARC
5
125
100
AcDbEntity
8
0
100
AcDbCircle
10
290.14499333521655
20
137.98510105504698
30
0
40
2.9999999999999942
210
0
220
0
230
1
100
AcDbArc
50
-45
51
135.00000000000037
0
ARC
5
126
100
AcDbEntity
8
0
100
AcDbCircle
10
325.14499391636184
20
156.2277417421663
30
0
40
2.9999999999999813
210
0
220
0
230
1
100
AcDbArc
50
-134.99999999999923
51
45.000000000000384
0
LINE
5
127
100
AcDbEntity
8
0
100
AcDbLine
10
323.02367357280224
20
154.10642139860664
30
0
11
311.5089546490176
21
154.10642139860664
31
0
0
ARC
5
128
100
AcDbEntity
8
0
100
AcDbCircle
10
332.38763402233587
20
130.22774174216624
30
0
40
3.0000000000000195
210
0
220
0
230
1
100
AcDbArc
50
135
51
315.0000000000008
0
LINE
5
129
100
AcDbEntity
8
0
100
AcDbLine
10
292.26631367877621
20
124.34906208572593
30
0
11
292.26631367877621
21
135.86378071148732
31
0
0
ARC
5
130
100
AcDbEntity
8
0
100
AcDbCircle
10
309.38763430545794
20
156.22774174216627
30
0
40
3.0000000000000067
210
0
220
0
230
1
100
AcDbArc
50
135.00000000000153
51
315.00000000000034
0
LWPOLYLINE
5
131
100
AcDbEntity
8
0
100
AcDbPolyline
90
28
70
1
43
0.0
10
402.73525926099069
20
125.5990247238218
42
0.99999999999999989
10
406.97789994811001
20
129.84166541094106
10
406.97789994811001
20
137.5990247238218
10
406.97789994811001
20
140.0990247238218
10
426.97790111040064
20
140.0990247238218
10
426.97790111040064
20
137.5990247238218
10
426.97790111040058
20
129.84166541094109
42
1.0000000074505806
10
431.2205417975199
20
125.5990247238218
10
441.97790052925529
20
125.5990247238218
10
441.97790052925529
20
-74.400975276178201
10
431.22054179751984
20
-74.400975276178201
42
1.0000000074505806
10
426.97790111040047
20
-78.643615963297492
10
426.97790111040058
20
-86.400975276178229
10
426.97790111040058
20
-88.900975276178229
10
406.97789994811001
20
-88.900975276178229
10
406.97789994811001
20
-86.400975276178229
10
406.97789994811001
20
-78.643615963297606
42
0.9999999925494194
10
402.7352592609908
20
-74.400975276178201
10
391.97790052925529
20
-74.400975276178201
10
391.97790052925535
20
11.356382770103844
42
0.99999999999999989
10
387.73525984213597
20
15.599023457223106
10
379.97790052925529
20
15.599023457223108
10
377.47790052925529
20
15.599023755246332
10
377.47790052925529
20
35.599023755246336
10
379.97790052925529
20
35.599023755246336
10
387.73525984213597
20
35.599023755246328
42
0.99999999999999989
10
391.97790052925535
20
39.841664442365605
10
391.97790052925535
20
125.5990247238218
0
LWPOLYLINE
5
132
100
AcDbEntity
8
0
100
AcDbPolyline
90
19
70
1
43
0.0
10
240
20
-23.257359312880716
42
0.99999999999999989
10
244.24264068711926
20
-27.5
10
252
20
-27.5
10
254.5
20
-27.5
10
254.5
20
-47.5
10
252
20
-47.5
10
244.24264068711926
20
-47.5
42
0.99999999999999989
10
240
20
-51.742640687119291
10
240
20
-75
10
40
20
-75
10
40
20
-51.742640687119291
42
0.9999999925494194
10
35.757359312880716
20
-47.5
10
25.500000000000007
20
-47.5
10
25.500000000000007
20
-27.5
10
35.757359312880716
20
-27.5
42
0.99999999999999989
10
40
20
-23.257359312880716
10
40
20
-3.7999999999999998
10
40
20
0
10
240
20
0
0
LINE
5
133
100
AcDbEntity
8
0
100
AcDbLine
10
332.85331466045756
20
81.546271094131328
30
0
11
334.71815881452233
21
79.881231670859194
31
0
0
LINE
5
134
100
AcDbEntity
8
0
100
AcDbLine
10
351.21756561828715
20
102.11423216690039
30
0
11
353.08240977235198
21
100.44919274362827
31
0
0
LINE
5
135
100
AcDbEntity
8
0
100
AcDbLine
10
353.08240977235198
20
100.44919274362827
30
0
11
334.71815881452233
21
79.881231670859194
31
0
0
LINE
5
136
100
AcDbEntity
8
0
100
AcDbLine
10
301.21756561828715
20
46.114232166900408
30
0
11
303.08240977235198
21
44.449192743628281
31
0
0
LINE
5
137
100
AcDbEntity
8
0
100
AcDbLine
10
319.53299927428048
20
66.627517861613001
30
0
11
321.39784342834525
21
64.962478438340852
31
0
0
LINE
5
138
100
AcDbEntity
8
0
100
AcDbLine
10
321.39784342834525
20
64.962478438340852
30
0
11
303.08240977235198
21
44.449192743628281
31
0
0
LINE
5
139
100
AcDbEntity
8
0
100
AcDbLine
10
280.26631367877621
20
80.106421398606628
30
0
11
277.76631367877621
21
80.106421398606628
31
0
0
LINE
5
140
100
AcDbEntity
8
0
100
AcDbLine
10
277.76631367877621
20
80.106421398606628
30
0
11
277.76631367877621
21
54.106421398606614
31
0
0
LINE
5
141
100
AcDbEntity
8
0
100
AcDbLine
10
277.76631367877621
20
54.106421398606614
30
0
11
280.26631367877621
21
54.106421398606614
31
0
0
LINE
5
142
100
AcDbEntity
8
0
100
AcDbLine
10
280.26631367877621
20
100.10642139860663
30
0
11
277.76631367877621
21
100.10642139860663
31
0
0
LINE
5
143
100
AcDbEntity
8
0
100
AcDbLine
10
277.76631367877621
20
100.10642139860663
30
0
11
277.76631367877621
21
120.10642139860663
31
0
0
LINE
5
144
100
AcDbEntity
8
0
100
AcDbLine
10
277.76631367877621
20
120.10642139860663
30
0
11
280.26631367877621
21
120.10642139860663
31
0
0
LINE
5
145
100
AcDbEntity
8
0
100
AcDbLine
10
280.26631367877621
20
140.10642139860661
30
0
11
277.76631367877621
21
140.10642139860661
31
0
0
LINE
5
146
100
AcDbEntity
8
0
100
AcDbLine
10
277.76631367877621
20
140.10642139860661
30
0
11
277.76631350658499
21
166.10642139860664
31
0
0
LINE
5
147
100
AcDbEntity
8
0
100
AcDbLine
10
277.76631350658499
20
166.10642139860664
30
0
11
277.76631349002815
21
168.60642139860664
31
0
0
LINE
5
148
100
AcDbEntity
8
0
100
AcDbLine
10
277.76631349002815
20
168.60642139860664
30
0
11
307.26631396189822
21
168.60642139860664
31
0
0
LINE
5
149
100
AcDbEntity
8
0
100
AcDbLine
10
307.26631396189822
20
166.10642157742058
30
0
11
307.26631396189822
21
168.60642139860664
31
0
0
LINE
5
150
100
AcDbEntity
8
0
100
AcDbLine
10
327.26631425992144
20
166.10642157742058
30
0
11
327.26631425992144
21
168.60642157742058
31
0
0
LINE
5
151
100
AcDbEntity
8
0
100
AcDbLine
10
327.26631425992144
20
168.60642157742058
30
0
11
342.26631367877616
21
168.60642157742058
31
0
0
LINE
5
152
100
AcDbEntity
8
0
100
AcDbLine
10
342.26631367877616
20
168.60642157742058
30
0
11
342.26631367877616
21
166.10642139860664
31
0
0
ARC
5
153
100
AcDbEntity
8
0
100
AcDbCircle
10
332.38763402233587
20
-19.772258257833748
30
0
40
3.0000000000000195
210
0
220
0
230
1
100
AcDbArc
50
135.00000000000031
51
315.00000000000051
0
LINE
5
154
100
AcDbEntity
8
0
100
AcDbLine
10
277.76631349002815
20
18.606421398606656
30
0
11
307.26631396189822
21
18.606421398606656
31
0
0
LINE
5
155
100
AcDbEntity
8
0
100
AcDbLine
10
323.02367357280224
20
4.1064213986066456
30
0
11
311.5089546490176
21
4.1064213986066456
31
0
0
LINE
5
156
100
AcDbEntity
8
0
100
AcDbLine
10
307.26631396189822
20
16.106421577420562
30
0
11
307.26631396189822
21
18.606421398606656
31
0
0
LINE
5
157
100
AcDbEntity
8
0
100
AcDbLine
10
342.26631367877616
20
16.106421398606656
30
0
11
342.26631367877616
21
-1.8935786013933686
31
0
0
LINE
5
158
100
AcDbEntity
8
0
100
AcDbLine
10
344.09667850212776
20
-41.527832907957283
30
0
11
351.21756561828715
21
-47.885767833099599
31
0
0
LINE
5
159
100
AcDbEntity
8
0
100
AcDbLine
10
277.76631367877621
20
-9.8935786013933757
30
0
11
277.76631350658499
21
16.106421398606656
31
0
0
LINE
5
160
100
AcDbEntity
8
0
100
AcDbLine
10
327.26631425992144
20
18.606421577420562
30
0
11
342.26631367877616
21
18.606421577420562
31
0
0
LINE
5
161
100
AcDbEntity
8
0
100
AcDbLine
10
353.08240977235198
20
-49.550807256371726
30
0
11
334.71815881452233
21
-70.118768329140806
31
0
0
LINE
5
162
100
AcDbEntity
8
0
100
AcDbLine
10
321.39784342834525
20
-85.037521561659148
30
0
11
303.08240977235198
21
-105.55080725637171
31
0
0
LINE
5
163
100
AcDbEntity
8
0
100
AcDbLine
10
277.76631367877621
20
-49.893578601393372
30
0
11
277.76631367877621
21
-29.893578601393376
31
0
0
LINE
5
164
100
AcDbEntity
8
0
100
AcDbLine
10
342.26631367877616
20
-21.893578601393369
30
0
11
342.26631367877616
21
-37.443595839105051
31
0
0
LINE
5
165
100
AcDbEntity
8
0
100
AcDbLine
10
290.11610598150435
20
-95.893578601393386
30
0
11
280.26631367877621
21
-95.893578601393386
31
0
0
LINE
5
166
100
AcDbEntity
8
0
100
AcDbLine
10
280.26631367877621
20
-9.8935786013933757
30
0
11
277.76631367877621
21
-9.8935786013933757
31
0
0
LINE
5
167
100
AcDbEntity
8
0
100
AcDbLine
10
327.26631425992144
20
16.106421577420562
30
0
11
327.26631425992144
21
18.606421577420562
31
0
0
ARC
5
168
100
AcDbEntity
8
0
100
AcDbCircle
10
345.00481621047527
20
-38.668587220249208
30
0
40
2.9999999999999845
210
0
220
0
230
1
100
AcDbArc
50
155.89999999999984
51
252.37940059220429
0
LINE
5
169
100
AcDbEntity
8
0
100
AcDbLine
10
307.26631396189822
20
16.106421577420562
30
0
11
307.26631396189822
21
8.3490620857258868
31
0
0
LINE
5
170
100
AcDbEntity
8
0
100
AcDbLine
10
327.26631425992144
20
16.106421577420562
30
0
11
327.26631425992144
21
8.3490620857259401
31
0
0
LINE
5
171
100
AcDbEntity
8
0
100
AcDbLine
10
277.76631350658499
20
16.106421398606656
30
0
11
277.76631349002815
21
18.606421398606656
31
0
0
LINE
5
172
100
AcDbEntity
8
0
100
AcDbLine
10
280.26631367877621
20
-49.893578601393372
30
0
11
277.76631367877621
21
-49.893578601393372
31
0
0
LINE
5
173
100
AcDbEntity
8
0
100
AcDbLine
10
319.53299927428048
20
-83.372482138386999
30
0
11
321.39784342834525
21
-85.037521561659148
31
0
0
ARC
5
174
100
AcDbEntity
8
0
100
AcDbCircle
10
309.38763430545794
20
6.2277417421662662
30
0
40
3.0000000000000067
210
0
220
0
230
1
100
AcDbArc
50
135.00000000000131
51
315.00000000000051
0
LINE
5
175
100
AcDbEntity
8
0
100
AcDbLine
10
342.26631367877616
20
18.606421577420562
30
0
11
342.26631367877616
21
16.106421398606656
31
0
0
ARC
5
176
100
AcDbEntity
8
0
100
AcDbCircle
10
290.14499333521655
20
-52.014898944953018
30
0
40
2.9999999999999942
210
0
220
0
230
1
100
AcDbArc
50
-44.999999999999652
51
135.0000000000002
0
LINE
5
177
100
AcDbEntity
8
0
100
AcDbLine
10
332.85331466045756
20
-68.453728905868672
30
0
11
334.71815881452233
21
-70.118768329140806
31
0
0
ARC
5
178
100
AcDbEntity
8
0
100
AcDbCircle
10
291.19120983014028
20
-98.69431988088499
30
0
40
2.9999999999999938
210
0
220
-0
230
1
100
AcDbArc
50
27.479400592204698
51
111.0000000000006
0
ARC
5
179
100
AcDbEntity
8
0
100
AcDbCircle
10
290.14499333521655
20
-12.014898944953032
30
0
40
2.9999999999999942
210
0
220
0
230
1
100
AcDbArc
50
-44.999999999999694
51
135.00000000000006
0
LINE
5
180
100
AcDbEntity
8
0
100
AcDbLine
10
288.02367299165689
20
-9.8935786013933757
30
0
11
280.26631367877621
21
-9.8935786013933757
31
0
0
LINE
5
181
100
AcDbEntity
8
0
100
AcDbLine
10
292.26631367877621
20
-65.650937914274095
30
0
11
292.26631367877621
21
-54.136219288512649
31
0
0
LINE
5
182
100
AcDbEntity
8
0
100
AcDbLine
10
319.53299927428048
20
-83.372482138386999
30
0
11
313.74649280803823
21
-78.205958507813577
31
0
0
LINE
5
183
100
AcDbEntity
8
0
100
AcDbLine
10
288.02367299165684
20
-69.893578601393372
30
0
11
280.26631367877621
21
-69.893578601393372
31
0
0
LINE
5
184
100
AcDbEntity
8
0
100
AcDbLine
10
321.07639711981381
20
-63.626285147431183
30
0
11
313.40741293590224
21
-72.21554743341207
31
0
0
LINE
5
185
100
AcDbEntity
8
0
100
AcDbLine
10
301.21756561828715
20
-103.88576783309959
30
0
11
293.85274019164143
21
-97.310030845023064
31
0
0
LINE
5
186
100
AcDbEntity
8
0
100
AcDbLine
10
288.02367299165689
20
-49.893578601393372
30
0
11
280.26631367877621
21
-49.893578601393372
31
0
0
ARC
5
187
100
AcDbEntity
8
0
100
AcDbCircle
10
313.57695287197026
20
-75.210752970612816
30
0
40
2.9999999999999982
210
0
220
0
230
1
100
AcDbArc
50
93.239700296103152
51
273.23970029610206
0
ARC
5
188
100
AcDbEntity
8
0
100
AcDbCircle
10
290.14499333521655
20
-27.77225825783372
30
0
40
3.0000000000000067
210
0
220
0
230
1
100
AcDbArc
50
-135.00000000000006
51
44.999999999999957
0
LINE
5
189
100
AcDbEntity
8
0
100
AcDbLine
10
277.76631367877621
20
-29.893578601393376
30
0
11
280.26631367877621
21
-29.893578601393376
31
0
0
LINE
5
190
100
AcDbEntity
8
0
100
AcDbLine
10
277.76631367877621
20
-69.893578601393372
30
0
11
277.76631367877621
21
-95.893578601393386
31
0
0
LINE
5
191
100
AcDbEntity
8
0
100
AcDbLine
10
351.21756561828715
20
-47.885767833099599
30
0
11
353.08240977235198
21
-49.550807256371726
31
0
0
ARC
5
192
100
AcDbEntity
8
0
100
AcDbCircle
10
332.38763402233587
20
-4.0148989449529893
30
0
40
3.0000000000000067
210
0
220
-0
230
1
100
AcDbArc
50
44.999999999999474
51
224.99999999999923
0
LINE
5
193
100
AcDbEntity
8
0
100
AcDbLine
10
301.21756561828715
20
-103.88576783309959
30
0
11
303.08240977235198
21
-105.55080725637171
31
0
0
ARC
5
194
100
AcDbEntity
8
0
100
AcDbCircle
10
324.07160265701458
20
-63.456745211363227
30
0
40
3.0000000000000329
210
0
220
-0
230
1
100
AcDbArc
50
3.2397002961019932
51
183.23970029610189
0
LINE
5
195
100
AcDbEntity
8
0
100
AcDbLine
10
280.26631367877621
20
-69.893578601393372
30
0
11
277.76631367877621
21
-69.893578601393372
31
0
0
LINE
5
196
100
AcDbEntity
8
0
100
AcDbLine
10
332.85331466045756
20
-68.453728905868672
30
0
11
327.06680819421535
21
-63.287205275295264
31
0
0
LINE
5
197
100
AcDbEntity
8
0
100
AcDbLine
10
280.26631367877621
20
-29.893578601393376
30
0
11
288.02367299165689
21
-29.893578601393376
31
0
0
LINE
5
198
100
AcDbEntity
8
0
100
AcDbLine
10
292.26631367877621
20
-25.650937914274063
30
0
11
292.26631367877621
21
-14.13621928851267
31
0
0
ARC
5
199
100
AcDbEntity
8
0
100
AcDbCircle
10
290.1449933352165
20
-67.772258257833741
30
0
40
3.0000000000000195
210
0
220
0
230
1
100
AcDbArc
50
-135.00000000000037
51
44.999999999999034
0
ARC
5
200
100
AcDbEntity
8
0
100
AcDbCircle
10
325.14499391636184
20
6.2277417421663017
30
0
40
2.9999999999999813
210
0
220
0
230
1
100
AcDbArc
50
-134.99999999999929
51
45.000000000000483
0
LINE
5
201
100
AcDbEntity
8
0
100
AcDbLine
10
277.76631367877621
20
-95.893578601393386
30
0
11
280.26631367877621
21
-95.893578601393386
31
0
0
LWPOLYLINE
5
202
100
AcDbEntity
8
0
100
AcDbPolyline
90
16
70
1
43
0.0
10
56.299999999999997
20
-3.7999999999999998
10
224.70000000000002
20
-3.8000000000000056
42
-0.4142135623730937
10
227.70000000000005
20
-6.7999999999999989
10
227.70000000000005
20
-47.470000000000006
42
-0.41421356237309681
10
224.69999999999999
20
-50.469999999999999
10
186.20000000000005
20
-50.470000000000013
42
0.41421356237309681
10
183.19999999999999
20
-53.470000000000006
10
183.19999999999999
20
-65.670000000000016
42
-0.41421356237309681
10
180.19999999999996
20
-68.670000000000002
10
99.80000000000004
20
-68.670000000000016
42
-0.41421356237309243
10
96.799999999999997
20
-65.670000000000016
10
96.799999999999997
20
-53.470000000000006
42
0.41421356237309076
10
93.799999999999983
20
-50.470000000000006
10
56.299999999999997
20
-50.470000000000006
42
-0.41421356237310025
10
53.299999999999997
20
-47.470000000000006
10
53.299999999999997
20
-6.7999999999999972
42
-0.41421356237309503
0
LINE
5
203
100
AcDbEntity
8
0
100
AcDbLine
10
330.26631367877621
20
143.86378071148741
30
0
11
330.26631367877621
21
132.3490620857259
31
0
0
LINE
5
204
100
AcDbEntity
8
0
100
AcDbLine
10
330.26631367877621
20
-6.1362192885125921
30
0
11
330.26631367877621
21
-17.65093791427411
31
0
0
LINE
5
205
100
AcDbEntity
8
0
100
AcDbLine
10
334.50895436589553
20
148.10642139860664
30
0
11
342.26631367877616
21
148.10642139860664
31
0
0
LINE
5
206
100
AcDbEntity
8
0
100
AcDbLine
10
334.50895436589553
20
128.10642139860664
30
0
11
342.26631367877616
21
128.10642139860664
31
0
0
LINE
5
207
100
AcDbEntity
8
0
100
AcDbLine
10
334.50895436589553
20
-1.8935786013933686
30
0
11
342.26631367877616
21
-1.8935786013933686
31
0
0
LINE
5
208
100
AcDbEntity
8
0
100
AcDbLine
10
334.50895436589553
20
-21.893578601393369
30
0
11
342.26631367877616
21
-21.893578601393369
31
0
0
ENDSEC
0
SECTION
2
OBJECTS
0
DICTIONARY
5
C
100
AcDbDictionary
3
ACAD_GROUP
350
D
3
ACAD_MLINESTYLE
350
17
0
DICTIONARY
5
D
100
AcDbDictionary
0
DICTIONARY
5
1A
330
C
100
AcDbDictionary
0
DICTIONARY
5
17
100
AcDbDictionary
0
ENDSEC
0
EOF
