0
SECTION
2
HEADER
9
$INSUNITS
70
4
9
$ACADVER
1
AC1014
9
$HANDSEED
5
FFFF
0
ENDSEC
0
SECTION
2
TABLES
0
TABLE
2
VPORT
5
8
100
AcDbSymbolTable
0
ENDTAB
0
TABLE
2
LTYPE
5
5
100
AcDbSymbolTable
0
LTYPE
5
14
100
AcDbSymbolTableRecord
100
AcDbLinetypeTableRecord
2
BYBLOCK
70
0
0
LTYPE
5
15
100
AcDbSymbolTableRecord
100
AcDbLinetypeTableRecord
2
BYLAYER
70
0
0
LTYPE
5
16
100
AcDbSymbolTableRecord
100
AcDbLinetypeTableRecord
2
DASHED
70
0
3
Dashed __ __ __ __ __ __ __ __ __ __ __ __ __ _
72
65
73
2
40
0.75
49
0.5
74
0
49
-0.25
74
0
0
ENDTAB
0
TABLE
2
LAYER
5
2
100
AcDbSymbolTable
70
2
0
LAYER
5
50
100
AcDbSymbolTableRecord
100
AcDbLayerTableRecord
2
0
70
0
62
7
6
CONTINUOUS
0
ENDTAB
0
TABLE
2
STYLE
5
3
100
AcDbSymbolTable
70
1
0
STYLE
5
11
100
AcDbSymbolTableRecord
100
AcDbTextStyleTableRecord
2
STANDARD
70
0
0
ENDTAB
0
TABLE
2
VIEW
5
6
100
AcDbSymbolTable
70
0
0
ENDTAB
0
TABLE
2
UCS
5
7
100
AcDbSymbolTable
70
0
0
ENDTAB
0
TABLE
2
APPID
5
9
100
AcDbSymbolTable
70
2
0
APPID
5
12
100
AcDbSymbolTableRecord
100
AcDbRegAppTableRecord
2
ACAD
70
0
0
ENDTAB
0
TABLE
2
DIMSTYLE
5
A
100
AcDbSymbolTable
70
1
0
ENDTAB
0
TABLE
2
BLOCK_RECORD
5
1
100
AcDbSymbolTable
70
1
0
BLOCK_RECORD
5
1F
100
AcDbSymbolTableRecord
100
AcDbBlockTableRecord
2
*MODEL_SPACE
0
BLOCK_RECORD
5
1B
100
AcDbSymbolTableRecord
100
AcDbBlockTableRecord
2
*PAPER_SPACE
0
ENDTAB
0
ENDSEC
0
SECTION
2
BLOCKS
0
BLOCK
5
20
100
AcDbEntity
100
AcDbBlockBegin
2
*MODEL_SPACE
0
ENDBLK
5
21
100
AcDbEntity
100
AcDbBlockEnd
0
BLOCK
5
1C
100
AcDbEntity
100
AcDbBlockBegin
2
*PAPER_SPACE
0
ENDBLK
5
1D
100
AcDbEntity
100
AcDbBlockEnd
0
ENDSEC
0
SECTION
2
ENTITIES
0
LWPOLYLINE
5
100
100
AcDbEntity
8
0
100
AcDbPolyline
90
28
70
1
43
0.0
10
45.369141174138434
20
114.44104713683159
10
45.369141174138434
20
140.4410471368316
10
135.36914117413843
20
140.4410471368316
10
135.36914214271391
20
128.44104856734305
10
155.36914244073714
20
128.44104856734305
10
155.36914117413843
20
140.4410471368316
10
245.36914117413843
20
140.4410471368316
10
245.36914117413843
20
114.44104713683159
10
257.36914117413846
20
114.44104713683159
10
257.36914117413846
20
94.441047136831585
10
245.36914117413843
20
94.441047136831585
10
245.36914117413843
20
74.441047136831585
10
257.36914117413846
20
74.441047136831585
10
257.36914117413846
20
54.441047136831585
10
245.36914117413843
20
54.441047136831585
10
245.36914117413843
20
28.441047136831585
10
155.36914117413843
20
28.441047136831582
10
155.36914117413843
20
40.441047136831578
10
135.36914117413843
20
40.441047136831578
10
135.36914117413843
20
28.441047136831582
10
45.369141174138434
20
28.441047136831585
10
45.369141174138434
20
54.441047136831585
10
33.369141174138434
20
54.441047136831585
10
33.369141174138434
20
74.441047136831585
10
45.369141174138434
20
74.441047136831585
10
45.369141174138434
20
94.441047136831585
10
33.369141174138434
20
94.441047136831585
10
33.369141174138434
20
114.44104713683159
0
LWPOLYLINE
5
101
100
AcDbEntity
8
0
100
AcDbPolyline
90
4
70
1
43
0.0
10
150.99999999999997
20
-14.000000000000004
10
150.99999999999997
20
-39
10
222.99999999999997
20
-39
10
222.99999999999997
20
-14.000000000000004
0
LWPOLYLINE
5
102
100
AcDbEntity
8
0
100
AcDbPolyline
90
4
70
1
43
0.0
10
56.999999999999993
20
-39
10
129
20
-39
10
129
20
-14.000000000000004
10
56.999999999999993
20
-14.000000000000004
0
LWPOLYLINE
5
103
100
AcDbEntity
8
0
100
AcDbPolyline
90
4
70
1
43
0.0
10
133
20
-67.000000000000014
10
147
20
-67.000000000000014
10
147
20
-53.000000000000007
10
133
20
-53.000000000000007
0
LWPOLYLINE
5
104
100
AcDbEntity
8
0
100
AcDbPolyline
90
4
70
1
43
0.0
10
164
20
-67.000000000000014
10
178
20
-67.000000000000014
10
178
20
-53.000000000000007
10
164
20
-53.000000000000007
0
LWPOLYLINE
5
105
100
AcDbEntity
8
0
100
AcDbPolyline
90
4
70
1
43
0.0
10
102
20
-67.000000000000014
10
116
20
-67.000000000000014
10
116
20
-53.000000000000007
10
102
20
-53.000000000000007
0
LWPOLYLINE
5
106
100
AcDbEntity
8
0
100
AcDbPolyline
90
12
70
1
43
0.0
10
240
20
-47.5
10
240
20
-75
10
40
20
-75
10
40
20
-47.5
10
28.000000000000007
20
-47.5
10
28.000000000000007
20
-27.5
10
40
20
-27.5
10
40
20
0
10
240
20
0
10
240
20
-27.5
10
252
20
-27.5
10
252
20
-47.5
0
LWPOLYLINE
5
107
100
AcDbEntity
8
0
100
AcDbPolyline
90
27
70
1
43
0.0
10
292.26631367877621
20
0.10642139860662425
10
280.26631367877621
20
0.10642139860662425
10
280.26631367877621
20
26.106421398606638
10
307.26631396189822
20
26.10642157742058
10
307.26631396189822
20
14.106421398606646
10
327.26631425992144
20
14.106421398606646
10
327.26631425992144
20
26.10642157742058
10
342.26631367877616
20
26.106421398606638
10
342.26631367877616
20
8.1064213986066314
10
330.26631367877621
20
8.1064213986066314
10
330.26631367877621
20
-11.893578601393369
10
342.26631367877616
20
-11.893578601393369
10
342.26631367877616
20
-29.893578601393358
10
351.21756561828715
20
-37.885767833099599
10
332.85331466045756
20
-58.453728905868672
10
323.90206272094656
20
-50.461539674162466
10
310.58174733476949
20
-65.380292906680765
10
319.53299927428048
20
-73.372482138386999
10
301.21756561828715
20
-93.885767833099592
10
292.26631367877621
20
-85.893578601393386
10
280.26631367877621
20
-85.893578601393386
10
280.26631367877621
20
-59.893578601393372
10
292.26631367877621
20
-59.893578601393372
10
292.26631367877621
20
-39.893578601393372
10
280.26631367877621
20
-39.893578601393372
10
280.26631367877621
20
-19.893578601393376
10
292.26631367877621
20
-19.893578601393376
0
LWPOLYLINE
5
108
100
AcDbEntity
8
0
100
AcDbPolyline
90
16
70
1
43
0.0
10
406.97789994811001
20
125.5990247238218
10
406.97789994811001
20
137.5990247238218
10
426.97790111040064
20
137.5990247238218
10
426.97790111040058
20
125.5990247238218
10
441.97790052925529
20
125.5990247238218
10
441.97790052925529
20
-74.400975276178201
10
426.97790111040047
20
-74.400975276178201
10
426.97790111040058
20
-86.400975276178229
10
406.97789994811001
20
-86.400975276178229
10
406.97789994811001
20
-74.400975276178201
10
391.97790052925529
20
-74.400975276178201
10
391.97790052925535
20
15.599023457223105
10
379.97790052925529
20
15.599023457223108
10
379.97790052925529
20
35.599023755246336
10
391.97790052925535
20
35.599023755246328
10
391.97790052925535
20
125.5990247238218
0
LWPOLYLINE
5
109
100
AcDbEntity
8
0
100
AcDbPolyline
90
27
70
1
43
0.0
10
327.07059807572273
20
115.7881906873552
10
339.07059807572273
20
115.7881906873552
10
339.07059807572273
20
95.788190687355197
10
327.07059807572273
20
95.788190687355197
10
327.07059807572273
20
75.788190687355197
10
339.07059807572273
20
75.788190687355197
10
339.07059807572273
20
49.788190687355197
10
327.07059807572273
20
49.788190687355197
10
318.11934613621179
20
41.79600145564897
10
299.8039124802184
20
62.309287150361655
10
308.75516441972934
20
70.301476382067875
10
295.43484903355227
20
85.220229614586188
10
286.48359709404133
20
77.228040382879968
10
268.11934613621179
20
97.796001455648991
10
277.07059807572273
20
105.78819068735521
10
277.07059807572273
20
123.78819068735521
10
289.07059807572273
20
123.78819068735521
10
289.07059807572273
20
143.78819068735521
10
277.07059807572273
20
143.78819068735521
10
277.07059807572273
20
161.78819068735521
10
292.07059749457744
20
161.78819086616915
10
292.07059749457744
20
149.78819068735521
10
312.07059779260067
20
149.78819068735521
10
312.07059779260067
20
161.78819086616915
10
339.07059807572273
20
161.78819068735521
10
339.07059807572273
20
135.78819068735521
10
327.07059807572273
20
135.78819068735521
0
LWPOLYLINE
5
110
100
AcDbEntity
8
0
100
AcDbPolyline
90
4
70
1
43
0.0
10
52.999999999999986
20
-8.5000000000000036
10
133
20
-8.5000000000000036
10
133
20
-44.5
10
52.999999999999986
20
-44.5
0
LWPOLYLINE
5
111
100
AcDbEntity
8
0
100
AcDbPolyline
90
4
70
1
43
0.0
10
147
20
-8.5000000000000036
10
227
20
-8.5000000000000036
10
227
20
-44.5
10
147
20
-44.5
0
CIRCLE
5
112
100
AcDbEntity
8
0
100
AcDbCircle
10
401.77790052925531
20
25.599023457223105
30
0
40
5.7999999999999829
210
0
220
0
230
1
0
ENDSEC
0
SECTION
2
OBJECTS
0
DICTIONARY
5
C
100
AcDbDictionary
3
ACAD_GROUP
350
D
3
ACAD_MLINESTYLE
350
17
0
DICTIONARY
5
D
100
AcDbDictionary
0
DICTIONARY
5
1A
330
C
100
AcDbDictionary
0
DICTIONARY
5
17
100
AcDbDictionary
0
ENDSEC
0
EOF
