0
SECTION
2
HEADER
9
$INSUNITS
70
4
9
$ACADVER
1
AC1014
9
$HANDSEED
5
FFFF
0
ENDSEC
0
SECTION
2
TABLES
0
TABLE
2
VPORT
5
8
100
AcDbSymbolTable
0
ENDTAB
0
TABLE
2
LTYPE
5
5
100
AcDbSymbolTable
0
LTYPE
5
14
100
AcDbSymbolTableRecord
100
AcDbLinetypeTableRecord
2
BYBLOCK
70
0
0
LTYPE
5
15
100
AcDbSymbolTableRecord
100
AcDbLinetypeTableRecord
2
BYLAYER
70
0
0
LTYPE
5
16
100
AcDbSymbolTableRecord
100
AcDbLinetypeTableRecord
2
DASHED
70
0
3
Dashed __ __ __ __ __ __ __ __ __ __ __ __ __ _
72
65
73
2
40
0.75
49
0.5
74
0
49
-0.25
74
0
0
ENDTAB
0
TABLE
2
LAYER
5
2
100
AcDbSymbolTable
70
2
0
LAYER
5
50
100
AcDbSymbolTableRecord
100
AcDbLayerTableRecord
2
0
70
0
62
7
6
CONTINUOUS
0
ENDTAB
0
TABLE
2
STYLE
5
3
100
AcDbSymbolTable
70
1
0
STYLE
5
11
100
AcDbSymbolTableRecord
100
AcDbTextStyleTableRecord
2
STANDARD
70
0
0
ENDTAB
0
TABLE
2
VIEW
5
6
100
AcDbSymbolTable
70
0
0
ENDTAB
0
TABLE
2
UCS
5
7
100
AcDbSymbolTable
70
0
0
ENDTAB
0
TABLE
2
APPID
5
9
100
AcDbSymbolTable
70
2
0
APPID
5
12
100
AcDbSymbolTableRecord
100
AcDbRegAppTableRecord
2
ACAD
70
0
0
ENDTAB
0
TABLE
2
DIMSTYLE
5
A
100
AcDbSymbolTable
70
1
0
ENDTAB
0
TABLE
2
BLOCK_RECORD
5
1
100
AcDbSymbolTable
70
1
0
BLOCK_RECORD
5
1F
100
AcDbSymbolTableRecord
100
AcDbBlockTableRecord
2
*MODEL_SPACE
0
BLOCK_RECORD
5
1B
100
AcDbSymbolTableRecord
100
AcDbBlockTableRecord
2
*PAPER_SPACE
0
ENDTAB
0
ENDSEC
0
SECTION
2
BLOCKS
0
BLOCK
5
20
100
AcDbEntity
100
AcDbBlockBegin
2
*MODEL_SPACE
0
ENDBLK
5
21
100
AcDbEntity
100
AcDbBlockEnd
0
BLOCK
5
1C
100
AcDbEntity
100
AcDbBlockBegin
2
*PAPER_SPACE
0
ENDBLK
5
1D
100
AcDbEntity
100
AcDbBlockEnd
0
ENDSEC
0
SECTION
2
ENTITIES
0
LWPOLYLINE
5
100
100
AcDbEntity
8
0
100
AcDbPolyline
90
8
70
1
43
0.0
10
14.999999999999964
20
193.11710170894179
42
0.59645427541038909
10
30.483892157410146
20
184.75486954247484
10
85.983892157410153
20
221.15137333206712
42
0.25277624972119817
10
90.499999999999972
20
229.51360549853408
10
90.499999999999972
20
353.39847610637253
42
0.37323778413862507
10
81.914213503770952
20
363.29797105135589
10
26.414213503770974
20
371.22654214467866
42
0.45641200897666701
10
14.999999999999964
20
361.32704719969524
0
LWPOLYLINE
5
101
100
AcDbEntity
8
0
100
AcDbPolyline
90
28
70
1
43
0.0
10
174.99999999999989
20
391.32704804536763
42
0.3732377841386203
10
166.4142135037709
20
401.22654299035105
10
-163.5857864962291
20
448.36939813983759
42
0.45641200897666379
10
-175
20
438.46990319485423
10
-175.00000000000003
20
408.67295406881328
42
0.37323778413862507
10
-166.41421350377098
20
398.77345912382987
10
-88.085786496229034
20
387.58368431018232
42
-0.37323778413862452
10
-79.500000000000028
20
377.6841893651989
10
-79.500000000000043
20
118.02881911599918
42
-0.25277624972119661
10
-84.016107842589804
20
109.66658694953225
10
-170.48389215741022
20
52.961631283009503
42
0.25277624972119894
10
-175.00000000000003
20
44.599399116542529
10
-175.00000000000003
20
18.516458104932173
42
0.59645427541039009
10
-159.51610784258983
20
10.154225938465194
10
-39.500000000000043
20
88.859932675491095
10
-39.500000000000057
20
184.61729198837185
42
-0.9999999925494194
10
-35.257359344490894
20
188.85993270710122
10
-29.242640687119305
20
188.85993267549105
42
-0.9999999925494194
10
-24.999999968389908
20
184.61729201998196
10
-25.000000000000036
20
98.368929161060223
10
110.49999999999997
20
187.22886183655132
10
110.49999999999996
20
282.98622114943208
42
-0.9999999925494194
10
114.74264065550912
20
287.22886186816146
10
120.75735931288068
20
287.22886183655129
42
-0.9999999925494194
10
125.00000003161009
20
282.98622118104214
10
124.99999999999997
20
196.73785832212047
10
170.48389215741008
20
226.56587009279772
42
0.25277624972119933
10
174.99999999999986
20
234.92810225926468
0
LWPOLYLINE
5
102
100
AcDbEntity
8
0
100
AcDbPolyline
90
20
70
1
43
0.0
10
-420
20
497.22886183655135
42
0.41421356237309503
10
-410
20
487.22886183655135
10
10
20
487.22886183655135
42
0.41421356237309392
10
19.999999999999961
20
497.22886183655135
10
19.999999999999979
20
677.22886183655135
42
0.41421356237310203
10
9.9999999999999769
20
687.22886183655135
10
-2.2204460492503131e-14
20
687.22886183655135
10
1.8873791418627661e-14
20
591.47150252367055
42
-0.99999999999999989
10
-4.2426406871193247
20
587.22886183655135
10
-10.25735931288072
20
587.22886183655123
42
-0.99999999999999989
10
-14.500000000000007
20
591.47150252367067
10
-14.500000000000025
20
687.22886183655135
10
-385.50000000000006
20
687.22886183655135
10
-385.50000003161006
20
591.47150255528072
42
-1.0000000074505806
10
-389.74264068711938
20
587.22886183655135
10
-395.75735931288068
20
587.22886183655123
42
-0.99999999999999989
10
-400
20
591.47150252367067
10
-400
20
687.22886183655135
10
-410
20
687.22886183655135
42
0.41421356237310336
10
-420
20
677.22886183655135
0
LWPOLYLINE
5
103
100
AcDbEntity
8
0
100
AcDbPolyline
90
8
70
1
43
0.0
10
-370.50000000000006
20
193.11710170894179
42
0.59645427541038909
10
-355.01610784258986
20
184.75486954247484
10
-299.5161078425898
20
221.15137333206712
42
0.25277624972119733
10
-295.00000000000006
20
229.51360549853408
10
-295.00000000000006
20
353.39847610637253
42
0.37323778413862507
10
-303.58578649622905
20
363.29797105135589
10
-359.08578649622905
20
371.22654214467866
42
0.45641200897666701
10
-370.50000000000006
20
361.32704719969524
0
LWPOLYLINE
5
104
100
AcDbEntity
8
0
100
AcDbPolyline
90
28
70
1
43
0.0
10
-215.01610784258992
20
226.56587009279772
42
0.25277624972119817
10
-210.50000000000014
20
234.92810225926468
10
-210.50000000000011
20
391.32704804536763
42
0.3732377841386193
10
-219.0857864962291
20
401.22654299035105
10
-549.08578649622905
20
448.36939813983759
42
0.45641200897666029
10
-560.5
20
438.46990319485423
10
-560.5
20
408.67295406881328
42
0.3732377841386183
10
-551.91421350377107
20
398.77345912382987
10
-473.58578649622899
20
387.58368431018232
42
-0.37323778413862402
10
-465
20
377.6841893651989
10
-465
20
118.02881911599918
42
-0.25277624972119556
10
-469.51610784258975
20
109.66658694953226
10
-555.9838921574102
20
52.961631283009503
42
0.25277624972120594
10
-560.50000000000011
20
44.599399116542529
10
-560.5
20
18.516458104932173
42
0.59645427541038931
10
-545.01610784258992
20
10.154225938465187
10
-425
20
88.859932675491095
10
-424.99999999999994
20
184.61729198837185
42
-0.9999999925494194
10
-420.75735934449085
20
188.85993270710122
10
-414.74264068711926
20
188.85993267549122
42
-0.9999999925494194
10
-410.49999996838994
20
184.61729201998199
10
-410.50000000000006
20
98.368929161060223
10
-275.00000000000006
20
187.22886183655132
10
-275.00000000000006
20
282.98622114943208
42
-0.9999999925494194
10
-270.75735934449091
20
287.22886186816146
10
-264.74264068711932
20
287.22886183655129
42
-0.9999999925494194
10
-260.49999996838994
20
282.98622118104214
10
-260.50000000000006
20
196.73785832212047
0
LWPOLYLINE
5
105
100
AcDbEntity
8
0
100
AcDbPolyline
90
20
70
1
43
0.0
10
-435
20
-11.140067308703863
42
0.41421356237309437
10
-445
20
-21.140067308703863
10
-445
20
-201.14006730870386
42
0.41421356237309398
10
-435
20
-211.14006730870383
10
-15
20
-211.14006730870386
42
0.41421356237309326
10
-4.9999999999999911
20
-201.14006730870386
10
-5
20
-21.140067308703863
42
0.41421356237309481
10
-15.000000000000002
20
-11.140067308703864
10
-25
20
-11.140067308703863
10
-24.999999968389872
20
-106.89742665319471
42
-0.9999999925494194
10
-29.242640687119284
20
-111.14006730870386
10
-35.257359344490844
20
-111.14006734031399
42
-0.9999999925494194
10
-39.5
20
-106.89742662158459
10
-39.5
20
-11.140067308703863
10
-410.50000000000006
20
-11.140067308703863
10
-410.50000000000006
20
-106.89742662158454
42
-0.99999999999999989
10
-414.74264068711938
20
-111.14006730870386
10
-420.75735931288068
20
-111.14006730870389
42
-0.99999999999999989
10
-425
20
-106.89742662158459
10
-425
20
-11.140067308703863
0
ENDSEC
0
SECTION
2
OBJECTS
0
DICTIONARY
5
C
100
AcDbDictionary
3
ACAD_GROUP
350
D
3
ACAD_MLINESTYLE
350
17
0
DICTIONARY
5
D
100
AcDbDictionary
0
DICTIONARY
5
1A
330
C
100
AcDbDictionary
0
DICTIONARY
5
17
100
AcDbDictionary
0
ENDSEC
0
EOF
